<svg width="350" height="105" viewBox="0 0 350 105" fill="none" xmlns="http://www.w3.org/2000/svg">
<path d="M0.442383 51.9561C0.442383 44.293 1.84945 37.2793 4.66357 30.915C7.4777 24.5508 11.4175 19.0957 16.4829 14.5498C21.5916 9.96061 27.6961 6.41048 34.7964 3.89941C41.9399 1.38835 49.8411 0.132812 58.5 0.132812C67.1156 0.132812 74.9951 1.38835 82.1387 3.89941C89.2822 6.41048 95.3867 9.96061 100.452 14.5498C105.561 19.0957 109.522 24.5508 112.336 30.915C115.151 37.2793 116.558 44.293 116.558 51.9561C116.558 59.6624 115.151 66.741 112.336 73.1919C109.522 79.5994 105.561 85.1195 100.452 89.752C95.3867 94.3844 89.2822 97.9995 82.1387 100.597C74.9951 103.152 67.1156 104.429 58.5 104.429C49.8411 104.429 41.9399 103.152 34.7964 100.597C27.6961 97.9995 21.5916 94.3844 16.4829 89.752C11.4175 85.1195 7.4777 79.5994 4.66357 73.1919C1.84945 66.741 0.442383 59.6624 0.442383 51.9561ZM21.0288 51.9561C21.0288 57.1947 21.9596 61.9137 23.8213 66.1133C25.7262 70.3128 28.3455 73.9062 31.6792 76.8936C35.0562 79.8376 39.0176 82.1105 43.5635 83.7124C48.1527 85.3143 53.1315 86.1152 58.5 86.1152C63.8685 86.1152 68.8257 85.3143 73.3716 83.7124C77.9608 82.1105 81.9222 79.8376 85.2559 76.8936C88.5895 73.9062 91.2088 70.3128 93.1138 66.1133C95.0187 61.9137 95.9712 57.1947 95.9712 51.9561C95.9712 46.7174 95.0187 42.02 93.1138 37.8638C91.2088 33.7075 88.5895 30.2007 85.2559 27.3433C81.9222 24.4425 77.9608 22.2345 73.3716 20.7192C68.8257 19.2039 63.8685 18.4463 58.5 18.4463C53.1315 18.4463 48.1527 19.2039 43.5635 20.7192C39.0176 22.2345 35.0562 24.4425 31.6792 27.3433C28.3455 30.2007 25.7262 33.7075 23.8213 37.8638C21.9596 42.02 21.0288 46.7174 21.0288 51.9561ZM186.11 30.915L195.851 19.0308H134.871V1.49658H234.167L177.343 72.8672L167.212 85.4658H230.984V103H129.871L186.11 30.915ZM250.467 1.49658H303.979C311.771 1.49658 318.525 2.34082 324.24 4.0293C329.955 5.71777 334.696 8.1639 338.462 11.3677C342.229 14.5282 345.021 18.403 346.84 22.9922C348.701 27.5814 349.632 32.755 349.632 38.5132C349.632 43.925 348.723 48.9255 346.905 53.5146C345.086 58.1038 342.294 62.0869 338.527 65.4639C334.804 68.7975 330.085 71.4168 324.37 73.3218C318.655 75.1834 311.901 76.1143 304.108 76.1143L271.053 76.0493V103H250.467V1.49658ZM304.498 58.2554C308.395 58.2554 311.793 57.8008 314.694 56.8916C317.638 55.9391 320.084 54.6187 322.032 52.9302C324.024 51.1984 325.496 49.1203 326.448 46.6958C327.444 44.228 327.942 41.5005 327.942 38.5132C327.942 32.4953 325.972 27.8195 322.032 24.4858C318.136 21.1089 312.291 19.4204 304.498 19.4204H271.053V58.2554H304.498Z" fill="white"/>
</svg>
