<svg width="798" height="166" viewBox="0 0 798 166" fill="none" xmlns="http://www.w3.org/2000/svg">
<mask id="path-1-outside-1_21_643" maskUnits="userSpaceOnUse" x="6" y="28" width="120" height="107" fill="black">
<rect fill="white" x="6" y="28" width="120" height="107"/>
<path d="M19.1577 101.802C22.8377 103.88 26.561 105.764 30.3276 107.452C34.1375 109.097 38.0773 110.504 42.147 111.673C46.2166 112.799 50.4811 113.665 54.9404 114.271C59.443 114.877 64.2271 115.18 69.2925 115.18C75.397 115.18 80.5923 114.791 84.8784 114.011C89.1646 113.189 92.6497 112.085 95.334 110.699C98.0615 109.271 100.031 107.582 101.244 105.634C102.499 103.686 103.127 101.564 103.127 99.2695C103.127 95.5895 101.59 92.6888 98.5161 90.5674C95.4422 88.4027 90.7015 87.3203 84.2939 87.3203C81.4798 87.3203 78.5142 87.5151 75.397 87.9048C72.2798 88.2511 69.1193 88.6408 65.9155 89.0737C62.755 89.5067 59.6162 89.918 56.499 90.3076C53.4251 90.654 50.5244 90.8271 47.7969 90.8271C43.251 90.8271 38.8783 90.2427 34.6787 89.0737C30.5225 87.9048 26.8208 86.1514 23.5737 83.8135C20.37 81.4756 17.8156 78.5532 15.9106 75.0464C14.0057 71.5396 13.0532 67.4482 13.0532 62.7725C13.0532 60.0016 13.4212 57.2524 14.1572 54.5249C14.9365 51.7974 16.1488 49.1997 17.7939 46.7319C19.4824 44.2209 21.6471 41.9046 24.2881 39.7832C26.929 37.6185 30.1112 35.7568 33.8345 34.1982C37.6011 32.6396 41.9305 31.4274 46.8228 30.5615C51.7583 29.6523 57.3649 29.1978 63.6426 29.1978C68.1885 29.1978 72.756 29.4575 77.3452 29.9771C81.9344 30.4533 86.3937 31.146 90.7231 32.0552C95.0959 32.9644 99.2954 34.0684 103.322 35.3672C107.348 36.6227 111.093 38.0298 114.557 39.5884L105.53 56.2134C102.672 54.9578 99.5985 53.8105 96.3081 52.7715C93.0177 51.6891 89.5758 50.7583 85.9824 49.979C82.389 49.1997 78.6657 48.5936 74.8125 48.1606C71.0026 47.6844 67.1061 47.4463 63.123 47.4463C57.4515 47.4463 52.7757 47.8576 49.0957 48.6802C45.459 49.5028 42.5583 50.5635 40.3936 51.8623C38.2288 53.1178 36.7135 54.5465 35.8477 56.1484C35.0251 57.707 34.6138 59.2656 34.6138 60.8242C34.6138 63.8548 35.9775 66.3442 38.7051 68.2925C41.4326 70.1974 45.5889 71.1499 51.1738 71.1499C53.4251 71.1499 56.0011 70.9984 58.9019 70.6953C61.8459 70.349 64.9198 69.981 68.1235 69.5913C71.3706 69.2017 74.661 68.8553 77.9946 68.5522C81.3716 68.2059 84.6403 68.0327 87.8008 68.0327C93.7754 68.0327 99.0573 68.7038 103.646 70.0459C108.279 71.388 112.154 73.3146 115.271 75.8257C118.388 78.2935 120.748 81.3024 122.35 84.8525C123.951 88.3594 124.752 92.2992 124.752 96.6719C124.752 102.517 123.389 107.734 120.661 112.323C117.977 116.869 114.124 120.722 109.102 123.882C104.123 127 98.1048 129.381 91.0479 131.026C83.9909 132.628 76.133 133.429 67.4741 133.429C61.7593 133.429 56.1743 133.061 50.7192 132.325C45.2642 131.632 40.0256 130.636 35.0034 129.337C30.0246 127.995 25.2622 126.415 20.7163 124.597C16.2137 122.735 12.0358 120.7 8.18262 118.492L19.1577 101.802Z"/>
</mask>
<path d="M19.1577 101.802L19.6494 100.931L18.8357 100.472L18.3222 101.253L19.1577 101.802ZM30.3276 107.452L29.9185 108.365L29.9312 108.37L30.3276 107.452ZM42.147 111.673L41.8709 112.635L41.8804 112.637L42.147 111.673ZM54.9404 114.271L54.8057 115.262L54.807 115.262L54.9404 114.271ZM84.8784 114.011L85.0573 114.995L85.0669 114.993L84.8784 114.011ZM95.334 110.699L95.7926 111.588L95.798 111.585L95.334 110.699ZM101.244 105.634L100.403 105.092L100.399 105.099L100.395 105.105L101.244 105.634ZM98.5161 90.5674L97.9403 91.385L97.9481 91.3904L98.5161 90.5674ZM75.397 87.9048L75.5074 88.8988L75.521 88.8971L75.397 87.9048ZM65.9155 89.0737L65.7816 88.0827L65.7798 88.083L65.9155 89.0737ZM56.499 90.3076L56.611 91.3014L56.6231 91.2999L56.499 90.3076ZM34.6787 89.0737L34.408 90.0364L34.4106 90.0371L34.6787 89.0737ZM23.5737 83.8135L22.9842 84.6213L22.9894 84.625L23.5737 83.8135ZM14.1572 54.5249L13.1957 54.2502L13.1937 54.2573L13.1918 54.2644L14.1572 54.5249ZM17.7939 46.7319L16.9641 46.1739L16.9619 46.1772L17.7939 46.7319ZM24.2881 39.7832L24.9144 40.5629L24.922 40.5566L24.2881 39.7832ZM33.8345 34.1982L33.4521 33.2742L33.4483 33.2758L33.8345 34.1982ZM46.8228 30.5615L46.997 31.5462L47.0039 31.545L46.8228 30.5615ZM77.3452 29.9771L77.2327 30.9707L77.242 30.9717L77.3452 29.9771ZM90.7231 32.0552L90.5176 33.0338L90.5196 33.0342L90.7231 32.0552ZM103.322 35.3672L103.015 36.3189L103.024 36.3218L103.322 35.3672ZM114.557 39.5884L115.435 40.0655L115.95 39.1186L114.967 38.6765L114.557 39.5884ZM105.53 56.2134L105.128 57.1289L105.97 57.4989L106.409 56.6905L105.53 56.2134ZM96.3081 52.7715L95.9956 53.7215L96.007 53.7251L96.3081 52.7715ZM74.8125 48.1606L74.6885 49.153L74.7008 49.1544L74.8125 48.1606ZM49.0957 48.6802L48.8776 47.7043L48.8751 47.7048L49.0957 48.6802ZM40.3936 51.8623L40.8953 52.7273L40.9017 52.7236L40.9081 52.7198L40.3936 51.8623ZM35.8477 56.1484L34.9679 55.6729L34.9633 55.6817L35.8477 56.1484ZM38.7051 68.2925L38.1238 69.1063L38.1325 69.1123L38.7051 68.2925ZM58.9019 70.6953L59.0058 71.69L59.0187 71.6885L58.9019 70.6953ZM68.1235 69.5913L68.0044 68.5984L68.0028 68.5986L68.1235 69.5913ZM77.9946 68.5522L78.0852 69.5482L78.0967 69.547L77.9946 68.5522ZM103.646 70.0459L103.366 71.0057L103.368 71.0064L103.646 70.0459ZM115.271 75.8257L114.644 76.6045L114.65 76.6097L115.271 75.8257ZM122.35 84.8525L121.438 85.2638L121.44 85.268L122.35 84.8525ZM120.661 112.323L119.801 111.812L119.8 111.814L120.661 112.323ZM109.102 123.882L109.632 124.73L109.634 124.729L109.102 123.882ZM91.0479 131.026L91.2692 132.001L91.2749 132L91.0479 131.026ZM50.7192 132.325L50.853 131.334L50.8452 131.333L50.7192 132.325ZM35.0034 129.337L34.7431 130.303L34.753 130.306L35.0034 129.337ZM20.7163 124.597L20.3342 125.521L20.3449 125.525L20.7163 124.597ZM8.18262 118.492L7.34708 117.943L6.76287 118.831L7.68543 119.36L8.18262 118.492ZM18.666 102.673C22.3723 104.766 26.1231 106.663 29.9186 108.365L30.7367 106.54C26.9989 104.864 23.3032 102.995 19.6494 100.931L18.666 102.673ZM29.9312 108.37C33.781 110.033 37.7611 111.454 41.8709 112.634L42.423 110.712C38.3936 109.555 34.494 108.162 30.7241 106.534L29.9312 108.37ZM41.8804 112.637C45.9961 113.776 50.3048 114.65 54.8057 115.262L55.0751 113.28C50.6574 112.68 46.4372 111.822 42.4136 110.71L41.8804 112.637ZM54.807 115.262C59.3585 115.875 64.1874 116.18 69.2925 116.18V114.18C64.2667 114.18 59.5275 113.879 55.0738 113.28L54.807 115.262ZM69.2925 116.18C75.4351 116.18 80.694 115.788 85.0573 114.995L84.6995 113.027C80.4906 113.793 75.3588 114.18 69.2925 114.18V116.18ZM85.0669 114.993C89.4092 114.16 92.9947 113.032 95.7926 111.588L94.8753 109.811C92.3048 111.137 88.9199 112.217 84.6899 113.029L85.0669 114.993ZM95.798 111.585C98.6313 110.101 100.759 108.305 102.093 106.162L100.395 105.105C99.3034 106.859 97.4918 108.44 94.87 109.813L95.798 111.585ZM102.084 106.175C103.443 104.067 104.127 101.758 104.127 99.2695H102.127C102.127 101.37 101.556 103.304 100.403 105.092L102.084 106.175ZM104.127 99.2695C104.127 95.255 102.424 92.0491 99.0841 89.7444L97.9481 91.3904C100.756 93.3285 102.127 95.924 102.127 99.2695H104.127ZM99.0919 89.7498C95.7677 87.4088 90.7777 86.3203 84.2939 86.3203V88.3203C90.6253 88.3203 95.1168 89.3966 97.9403 91.385L99.0919 89.7498ZM84.2939 86.3203C81.4339 86.3203 78.4266 86.5183 75.2729 86.9125L75.521 88.8971C78.6017 88.512 81.5257 88.3203 84.2939 88.3203V86.3203ZM75.2865 86.9109C72.1613 87.2582 68.993 87.6488 65.7816 88.0827L66.0494 90.0647C69.2456 89.6328 72.3983 89.2441 75.5074 88.8987L75.2865 86.9109ZM65.7798 88.083C62.6232 88.5154 59.4882 88.9262 56.375 89.3153L56.6231 91.2999C59.7442 90.9098 62.8869 90.4979 66.0512 90.0645L65.7798 88.083ZM56.3871 89.3139C53.3455 89.6566 50.4824 89.8271 47.7969 89.8271V91.8271C50.5664 91.8271 53.5048 91.6513 56.611 91.3013L56.3871 89.3139ZM47.7969 89.8271C43.3377 89.8271 39.0554 89.254 34.9469 88.1104L34.4106 90.0371C38.7011 91.2314 43.1642 91.8271 47.7969 91.8271V89.8271ZM34.9495 88.1111C30.8968 86.9713 27.303 85.2663 24.158 83.0019L22.9894 84.625C26.3386 87.0364 30.1481 88.8383 34.408 90.0364L34.9495 88.1111ZM24.1632 83.0057C21.0799 80.7557 18.624 77.9465 16.7894 74.5691L15.0319 75.5237C17.0072 79.1599 19.66 82.1955 22.9843 84.6213L24.1632 83.0057ZM16.7894 74.5691C14.9767 71.232 14.0532 67.3102 14.0532 62.7725H12.0532C12.0532 67.5863 13.0347 71.8471 15.0319 75.5237L16.7894 74.5691ZM14.0532 62.7725C14.0532 60.0913 14.4092 57.4297 15.1227 54.7854L13.1918 54.2644C12.4333 57.0752 12.0532 59.9119 12.0532 62.7725H14.0532ZM15.1188 54.7996C15.8684 52.176 17.0356 49.6723 18.626 47.2866L16.9619 46.1772C15.262 48.7271 14.0047 51.4187 13.1957 54.2502L15.1188 54.7996ZM18.6238 47.2899C20.2497 44.8719 22.3428 42.6285 24.9143 40.5628L23.6618 39.0036C20.9515 41.1807 18.7151 43.5698 16.9641 46.1739L18.6238 47.2899ZM24.922 40.5566C27.4759 38.4633 30.5709 36.6485 34.2206 35.1207L33.4483 33.2758C29.6514 34.8652 26.3822 36.7737 23.6542 39.0098L24.922 40.5566ZM34.2168 35.1223C37.9038 33.5966 42.1612 32.4021 46.997 31.5462L46.6485 29.5768C41.6998 30.4527 37.2983 31.6827 33.4521 33.2742L34.2168 35.1223ZM47.0039 31.545C51.867 30.6491 57.4113 30.1978 63.6426 30.1978V28.1978C57.3185 28.1978 51.6496 28.6556 46.6416 29.5781L47.0039 31.545ZM63.6426 30.1978C68.1503 30.1978 72.6803 30.4553 77.2327 30.9707L77.4577 28.9834C72.8318 28.4597 68.2267 28.1978 63.6426 28.1978V30.1978ZM77.242 30.9717C81.7983 31.4445 86.2234 32.132 90.5176 33.0338L90.9287 31.0765C86.564 30.1599 82.0705 29.462 77.4484 28.9824L77.242 30.9717ZM90.5196 33.0342C94.8593 33.9366 99.0242 35.0316 103.015 36.3189L103.629 34.4155C99.5666 33.1051 95.3325 31.9922 90.9267 31.0761L90.5196 33.0342ZM103.024 36.3218C107.016 37.5667 110.723 38.9599 114.146 40.5003L114.967 38.6765C111.463 37.0997 107.68 35.6787 103.619 34.4125L103.024 36.3218ZM113.678 39.1112L104.651 55.7362L106.409 56.6905L115.435 40.0655L113.678 39.1112ZM105.932 55.2979C103.038 54.0264 99.9304 52.8667 96.6092 51.8179L96.007 53.7251C99.2665 54.7544 102.306 55.8893 105.128 57.1289L105.932 55.2979ZM96.6206 51.8216C93.2953 50.7277 89.8197 49.7879 86.1944 49.0017L85.7705 50.9563C89.332 51.7287 92.7402 52.6506 95.9956 53.7214L96.6206 51.8216ZM86.1944 49.0017C82.5661 48.2149 78.8092 47.6034 74.9242 47.1669L74.7008 49.1544C78.5222 49.5838 82.2119 50.1846 85.7705 50.9563L86.1944 49.0017ZM74.9365 47.1684C71.084 46.6868 67.146 46.4463 63.123 46.4463V48.4463C67.0662 48.4463 70.9212 48.682 74.6885 49.1529L74.9365 47.1684ZM63.123 46.4463C57.4109 46.4463 52.6553 46.8598 48.8776 47.7043L49.3139 49.6561C52.8961 48.8554 57.4921 48.4463 63.123 48.4463V46.4463ZM48.8751 47.7048C45.1793 48.5408 42.1671 49.632 39.8791 51.0048L40.9081 52.7198C42.9494 51.495 45.7386 50.4648 49.3163 49.6555L48.8751 47.7048ZM39.8918 50.9973C37.625 52.312 35.9485 53.859 34.9679 55.6729L36.7274 56.624C37.4786 55.2341 38.8327 53.9237 40.8953 52.7273L39.8918 50.9973ZM34.9633 55.6817C34.0748 57.3651 33.6138 59.0827 33.6138 60.8242H35.6138C35.6138 59.4485 35.9753 58.049 36.732 56.6152L34.9633 55.6817ZM33.6138 60.8242C33.6138 64.2156 35.1659 66.9934 38.1238 69.1062L39.2863 67.4787C36.7892 65.6951 35.6138 63.494 35.6138 60.8242H33.6138ZM38.1325 69.1123C41.1075 71.1901 45.5092 72.1499 51.1738 72.1499V70.1499C45.6685 70.1499 41.7577 69.2048 39.2777 67.4726L38.1325 69.1123ZM51.1738 72.1499C53.4682 72.1499 56.08 71.9956 59.0058 71.6899L58.7979 69.7007C55.9223 70.0012 53.382 70.1499 51.1738 70.1499V72.1499ZM59.0187 71.6885C61.9641 71.3419 65.0393 70.9738 68.2443 70.584L68.0028 68.5986C64.8002 68.9881 61.7276 69.356 58.785 69.7022L59.0187 71.6885ZM68.2427 70.5842C71.48 70.1957 74.7608 69.8503 78.0852 69.5481L77.9041 67.5564C74.5611 67.8603 71.2612 68.2076 68.0044 68.5984L68.2427 70.5842ZM78.0967 69.547C81.4422 69.2039 84.6768 69.0327 87.8008 69.0327V67.0327C84.6038 67.0327 81.301 67.2079 77.8926 67.5575L78.0967 69.547ZM87.8008 69.0327C93.703 69.0327 98.8872 69.6959 103.366 71.0057L103.927 69.0861C99.2274 67.7116 93.8478 67.0327 87.8008 67.0327V69.0327ZM103.368 71.0064C107.899 72.319 111.648 74.1916 114.644 76.6044L115.898 75.0469C112.659 72.4376 108.659 70.457 103.925 69.0854L103.368 71.0064ZM114.65 76.6097C117.645 78.9804 119.903 81.8625 121.438 85.2638L123.261 84.4413C121.592 80.7423 119.132 77.6065 115.892 75.0416L114.65 76.6097ZM121.44 85.268C122.975 88.628 123.752 92.4233 123.752 96.6719H125.752C125.752 92.175 124.928 88.0907 123.259 84.437L121.44 85.268ZM123.752 96.6719C123.752 102.354 122.429 107.392 119.801 111.812L121.521 112.834C124.349 108.075 125.752 102.679 125.752 96.6719H123.752ZM119.8 111.814C117.206 116.207 113.473 119.95 108.569 123.036L109.634 124.729C114.774 121.494 118.747 117.531 121.522 112.831L119.8 111.814ZM108.571 123.035C103.705 126.082 97.7944 128.426 90.8208 130.052L91.2749 132C98.4152 130.335 104.541 127.918 109.632 124.73L108.571 123.035ZM90.8265 130.051C83.8547 131.633 76.0725 132.429 67.4741 132.429V134.429C76.1934 134.429 84.1271 133.622 91.2692 132.001L90.8265 130.051ZM67.4741 132.429C61.8023 132.429 56.2621 132.063 50.8529 131.334L50.5855 133.316C56.0866 134.058 61.7163 134.429 67.4741 134.429V132.429ZM50.8452 131.333C45.4296 130.645 40.2327 129.657 35.2538 128.369L34.753 130.306C39.8185 131.616 45.0987 132.619 50.5933 133.317L50.8452 131.333ZM35.2637 128.372C30.3206 127.039 25.5955 125.471 21.0877 123.668L20.3449 125.525C24.929 127.359 29.7286 128.951 34.7431 130.303L35.2637 128.372ZM21.0984 123.673C16.6316 121.826 12.4925 119.809 8.67981 117.625L7.68543 119.36C11.5791 121.591 15.7958 123.644 20.3342 125.521L21.0984 123.673ZM9.01815 119.042L19.9932 102.352L18.3222 101.253L7.34708 117.943L9.01815 119.042Z" fill="white" mask="url(#path-1-outside-1_21_643)"/>
<mask id="path-3-outside-2_21_643" maskUnits="userSpaceOnUse" x="139" y="29" width="99" height="104" fill="black">
<rect fill="white" x="139" y="29" width="99" height="104"/>
<path d="M178.004 48.5503H140.533V30.4966H236.062V48.5503H198.591V132H178.004V48.5503Z"/>
</mask>
<path d="M178.004 48.5503H179.004V47.5503H178.004V48.5503ZM140.533 48.5503H139.533V49.5503H140.533V48.5503ZM140.533 30.4966V29.4966H139.533V30.4966H140.533ZM236.062 30.4966H237.062V29.4966H236.062V30.4966ZM236.062 48.5503V49.5503H237.062V48.5503H236.062ZM198.591 48.5503V47.5503H197.591V48.5503H198.591ZM198.591 132V133H199.591V132H198.591ZM178.004 132H177.004V133H178.004V132ZM178.004 47.5503H140.533V49.5503H178.004V47.5503ZM141.533 48.5503V30.4966H139.533V48.5503H141.533ZM140.533 31.4966H236.062V29.4966H140.533V31.4966ZM235.062 30.4966V48.5503H237.062V30.4966H235.062ZM236.062 47.5503H198.591V49.5503H236.062V47.5503ZM197.591 48.5503V132H199.591V48.5503H197.591ZM198.591 131H178.004V133H198.591V131ZM179.004 132V48.5503H177.004V132H179.004Z" fill="white" mask="url(#path-3-outside-2_21_643)"/>
<mask id="path-5-outside-3_21_643" maskUnits="userSpaceOnUse" x="253" y="29" width="103" height="106" fill="black">
<rect fill="white" x="253" y="29" width="103" height="106"/>
<path d="M254.585 30.4966H275.172V86.4111C275.172 91.0003 275.8 95.0916 277.055 98.6851C278.311 102.235 280.172 105.244 282.64 107.712C285.151 110.18 288.247 112.063 291.927 113.362C295.607 114.617 299.893 115.245 304.785 115.245C309.634 115.245 313.899 114.617 317.579 113.362C321.302 112.063 324.397 110.18 326.865 107.712C329.376 105.244 331.26 102.235 332.515 98.6851C333.771 95.0916 334.398 91.0003 334.398 86.4111V30.4966H354.985V88.8789C354.985 95.5462 353.859 101.607 351.608 107.062C349.357 112.518 346.088 117.193 341.802 121.09C337.516 124.986 332.255 127.995 326.021 130.117C319.83 132.238 312.751 133.299 304.785 133.299C296.819 133.299 289.719 132.238 283.484 130.117C277.293 127.995 272.055 124.986 267.769 121.09C263.482 117.193 260.214 112.518 257.962 107.062C255.711 101.607 254.585 95.5462 254.585 88.8789V30.4966Z"/>
</mask>
<path d="M254.585 30.4966V29.4966H253.585V30.4966H254.585ZM275.172 30.4966H276.172V29.4966H275.172V30.4966ZM277.055 98.6851L276.111 99.0149L276.112 99.0185L277.055 98.6851ZM282.64 107.712L281.933 108.419L281.939 108.425L282.64 107.712ZM291.927 113.362L291.594 114.305L291.604 114.308L291.927 113.362ZM317.579 113.362L317.902 114.308L317.908 114.306L317.579 113.362ZM326.865 107.712L326.164 106.999L326.158 107.005L326.865 107.712ZM332.515 98.6851L333.458 99.0185L333.459 99.0149L332.515 98.6851ZM334.398 30.4966V29.4966H333.398V30.4966H334.398ZM354.985 30.4966H355.985V29.4966H354.985V30.4966ZM326.021 130.117L325.699 129.17L325.697 129.171L326.021 130.117ZM283.484 130.117L283.16 131.063L283.162 131.063L283.484 130.117ZM254.585 31.4966H275.172V29.4966H254.585V31.4966ZM274.172 30.4966V86.4111H276.172V30.4966H274.172ZM274.172 86.4111C274.172 91.0902 274.812 95.2962 276.111 99.0149L277.999 98.3552C276.787 94.8871 276.172 90.9104 276.172 86.4111H274.172ZM276.112 99.0185C277.414 102.698 279.352 105.838 281.933 108.419L283.347 107.005C280.993 104.651 279.208 101.772 277.998 98.3516L276.112 99.0185ZM281.939 108.425C284.566 111.006 287.791 112.963 291.594 114.305L292.26 112.419C288.703 111.163 285.737 109.353 283.341 106.999L281.939 108.425ZM291.604 114.308C295.411 115.607 299.81 116.245 304.785 116.245V114.245C299.976 114.245 295.803 113.628 292.25 112.415L291.604 114.308ZM304.785 116.245C309.718 116.245 314.095 115.607 317.902 114.308L317.256 112.415C313.702 113.628 309.55 114.245 304.785 114.245V116.245ZM317.908 114.306C321.755 112.964 324.985 111.006 327.572 108.419L326.158 107.005C323.81 109.353 320.849 111.162 317.249 112.418L317.908 114.306ZM327.566 108.425C330.193 105.843 332.155 102.702 333.458 99.0185L331.572 98.3516C330.364 101.769 328.559 104.645 326.164 106.999L327.566 108.425ZM333.459 99.0149C334.758 95.2962 335.398 91.0902 335.398 86.4111H333.398C333.398 90.9104 332.783 94.8871 331.571 98.3552L333.459 99.0149ZM335.398 86.4111V30.4966H333.398V86.4111H335.398ZM334.398 31.4966H354.985V29.4966H334.398V31.4966ZM353.985 30.4966V88.8789H355.985V30.4966H353.985ZM353.985 88.8789C353.985 95.4323 352.879 101.362 350.684 106.681L352.532 107.444C354.84 101.853 355.985 95.6602 355.985 88.8789H353.985ZM350.684 106.681C348.488 112.002 345.304 116.555 341.129 120.35L342.474 121.83C346.872 117.832 350.226 113.033 352.532 107.444L350.684 106.681ZM341.129 120.35C336.957 124.142 331.821 127.087 325.699 129.17L326.343 131.063C332.69 128.904 338.074 125.83 342.474 121.83L341.129 120.35ZM325.697 129.171C319.63 131.25 312.664 132.299 304.785 132.299V134.299C312.838 134.299 320.03 133.227 326.345 131.063L325.697 129.171ZM304.785 132.299C296.906 132.299 289.918 131.25 283.807 129.17L283.162 131.063C289.519 133.227 296.732 134.299 304.785 134.299V132.299ZM283.809 129.171C277.73 127.088 272.614 124.143 268.441 120.35L267.096 121.83C271.495 125.829 276.857 128.903 283.16 131.063L283.809 129.171ZM268.441 120.35C264.267 116.555 261.083 112.002 258.887 106.681L257.038 107.444C259.345 113.033 262.698 117.832 267.096 121.83L268.441 120.35ZM258.887 106.681C256.691 101.362 255.585 95.4323 255.585 88.8789H253.585C253.585 95.6602 254.731 101.853 257.038 107.444L258.887 106.681ZM255.585 88.8789V30.4966H253.585V88.8789H255.585Z" fill="white" mask="url(#path-5-outside-3_21_643)"/>
<mask id="path-7-outside-4_21_643" maskUnits="userSpaceOnUse" x="379" y="29" width="104" height="105" fill="black">
<rect fill="white" x="379" y="29" width="104" height="105"/>
<path d="M380.417 30.4966H417.628C428.495 30.4966 437.933 31.6655 445.943 34.0034C453.952 36.3413 460.576 39.6966 465.815 44.0693C471.097 48.3988 475.015 53.6807 477.569 59.915C480.167 66.1061 481.466 73.0765 481.466 80.8262C481.466 88.1862 480.189 95.005 477.634 101.283C475.08 107.517 471.183 112.929 465.945 117.518C460.706 122.064 454.082 125.636 446.073 128.233C438.063 130.788 428.625 132.065 417.758 132.065L380.417 132V30.4966ZM422.694 114.206C428.842 114.206 434.232 113.427 438.864 111.868C443.497 110.266 447.35 108.015 450.424 105.114C453.541 102.214 455.879 98.7067 457.438 94.5938C458.996 90.4808 459.775 85.8916 459.775 80.8262C459.775 75.8473 458.996 71.3664 457.438 67.3833C455.879 63.3569 453.541 59.9583 450.424 57.1875C447.35 54.3734 443.497 52.2087 438.864 50.6934C434.232 49.1781 428.842 48.4204 422.694 48.4204H401.003V114.206H422.694Z"/>
</mask>
<path d="M380.417 30.4966V29.4966H379.417V30.4966H380.417ZM465.815 44.0693L465.174 44.8371L465.181 44.8427L465.815 44.0693ZM477.569 59.915L476.644 60.2942L476.647 60.3019L477.569 59.915ZM477.634 101.283L478.56 101.662L478.561 101.66L477.634 101.283ZM465.945 117.518L466.6 118.273L466.604 118.27L465.945 117.518ZM446.073 128.233L446.377 129.186L446.381 129.185L446.073 128.233ZM417.758 132.065L417.757 133.065H417.758V132.065ZM380.417 132H379.417V132.998L380.415 133L380.417 132ZM438.864 111.868L439.183 112.816L439.191 112.813L438.864 111.868ZM450.424 105.114L449.743 104.382L449.738 104.387L450.424 105.114ZM457.438 67.3833L456.505 67.7443L456.506 67.7477L457.438 67.3833ZM450.424 57.1875L449.749 57.9251L449.754 57.93L449.759 57.9349L450.424 57.1875ZM401.003 48.4204V47.4204H400.003V48.4204H401.003ZM401.003 114.206H400.003V115.206H401.003V114.206ZM380.417 31.4966H417.628V29.4966H380.417V31.4966ZM417.628 31.4966C428.427 31.4966 437.767 32.6587 445.663 34.9634L446.223 33.0435C438.1 30.6724 428.563 29.4966 417.628 29.4966V31.4966ZM445.663 34.9634C453.569 37.2711 460.062 40.5699 465.174 44.837L466.456 43.3016C461.091 38.8234 454.336 35.4116 446.223 33.0435L445.663 34.9634ZM465.181 44.8427C470.336 49.0685 474.153 54.2155 476.644 60.2942L478.495 59.5359C475.877 53.1458 471.857 47.7291 466.449 43.2959L465.181 44.8427ZM476.647 60.3019C479.186 66.3531 480.466 73.1891 480.466 80.8262H482.466C482.466 72.9639 481.148 65.8592 478.491 59.5281L476.647 60.3019ZM480.466 80.8262C480.466 88.0682 479.21 94.7578 476.708 100.906L478.561 101.66C481.168 95.2523 482.466 88.3042 482.466 80.8262H480.466ZM476.709 100.904C474.215 106.99 470.412 112.275 465.286 116.766L466.604 118.27C471.955 113.583 475.945 108.044 478.56 101.662L476.709 100.904ZM465.289 116.763C460.171 121.204 453.673 124.717 445.764 127.282L446.381 129.185C454.492 126.554 461.241 122.924 466.6 118.273L465.289 116.763ZM445.769 127.281C437.882 129.796 428.551 131.065 417.758 131.065V133.065C428.7 133.065 438.245 131.779 446.377 129.186L445.769 127.281ZM417.76 131.065L380.419 131L380.415 133L417.757 133.065L417.76 131.065ZM381.417 132V30.4966H379.417V132H381.417ZM422.694 115.206C428.923 115.206 434.425 114.417 439.183 112.816L438.545 110.92C434.038 112.437 428.76 113.206 422.694 113.206V115.206ZM439.191 112.813C443.936 111.172 447.918 108.854 451.11 105.842L449.738 104.387C446.782 107.176 443.057 109.36 438.537 110.923L439.191 112.813ZM451.105 105.846C454.339 102.837 456.761 99.1999 458.373 94.9481L456.502 94.2394C454.996 98.2135 452.743 101.59 449.743 104.382L451.105 105.846ZM458.373 94.9481C459.98 90.7062 460.775 85.9946 460.775 80.8262H458.775C458.775 85.7886 458.012 90.2554 456.502 94.2394L458.373 94.9481ZM460.775 80.8262C460.775 75.7428 459.98 71.1355 458.369 67.0189L456.506 67.7477C458.013 71.5973 458.775 75.9519 458.775 80.8262H460.775ZM458.37 67.0223C456.756 62.853 454.328 59.3204 451.088 56.4401L449.759 57.9349C452.754 60.5963 455.002 63.8608 456.505 67.7443L458.37 67.0223ZM451.099 56.4499C447.904 53.5248 443.92 51.295 439.175 49.7429L438.553 51.6438C443.073 53.1223 446.796 55.2219 449.749 57.9251L451.099 56.4499ZM439.175 49.7429C434.42 48.1875 428.921 47.4204 422.694 47.4204V49.4204C428.762 49.4204 434.044 50.1686 438.553 51.6438L439.175 49.7429ZM422.694 47.4204H401.003V49.4204H422.694V47.4204ZM400.003 48.4204V114.206H402.003V48.4204H400.003ZM401.003 115.206H422.694V113.206H401.003V115.206Z" fill="white" mask="url(#path-7-outside-4_21_643)"/>
<mask id="path-9-outside-5_21_643" maskUnits="userSpaceOnUse" x="498" y="29" width="24" height="104" fill="black">
<rect fill="white" x="498" y="29" width="24" height="104"/>
<path d="M499.819 30.4966H520.536V132H499.819V30.4966Z"/>
</mask>
<path d="M499.819 30.4966V29.4966H498.819V30.4966H499.819ZM520.536 30.4966H521.536V29.4966H520.536V30.4966ZM520.536 132V133H521.536V132H520.536ZM499.819 132H498.819V133H499.819V132ZM499.819 31.4966H520.536V29.4966H499.819V31.4966ZM519.536 30.4966V132H521.536V30.4966H519.536ZM520.536 131H499.819V133H520.536V131ZM500.819 132V30.4966H498.819V132H500.819Z" fill="white" mask="url(#path-9-outside-5_21_643)"/>
<mask id="path-11-outside-6_21_643" maskUnits="userSpaceOnUse" x="540" y="28" width="119" height="107" fill="black">
<rect fill="white" x="540" y="28" width="119" height="107"/>
<path d="M541.442 80.9561C541.442 73.293 542.849 66.2793 545.664 59.915C548.478 53.5508 552.417 48.0957 557.483 43.5498C562.592 38.9606 568.696 35.4105 575.796 32.8994C582.94 30.3883 590.841 29.1328 599.5 29.1328C608.116 29.1328 615.995 30.3883 623.139 32.8994C630.282 35.4105 636.387 38.9606 641.452 43.5498C646.561 48.0957 650.522 53.5508 653.336 59.915C656.151 66.2793 657.558 73.293 657.558 80.9561C657.558 88.6624 656.151 95.741 653.336 102.192C650.522 108.599 646.561 114.119 641.452 118.752C636.387 123.384 630.282 127 623.139 129.597C615.995 132.152 608.116 133.429 599.5 133.429C590.841 133.429 582.94 132.152 575.796 129.597C568.696 127 562.592 123.384 557.483 118.752C552.417 114.119 548.478 108.599 545.664 102.192C542.849 95.741 541.442 88.6624 541.442 80.9561ZM562.029 80.9561C562.029 86.1947 562.96 90.9137 564.821 95.1133C566.726 99.3128 569.346 102.906 572.679 105.894C576.056 108.838 580.018 111.111 584.563 112.712C589.153 114.314 594.132 115.115 599.5 115.115C604.868 115.115 609.826 114.314 614.372 112.712C618.961 111.111 622.922 108.838 626.256 105.894C629.59 102.906 632.209 99.3128 634.114 95.1133C636.019 90.9137 636.971 86.1947 636.971 80.9561C636.971 75.7174 636.019 71.02 634.114 66.8638C632.209 62.7075 629.59 59.2007 626.256 56.3433C622.922 53.4425 618.961 51.2345 614.372 49.7192C609.826 48.2039 604.868 47.4463 599.5 47.4463C594.132 47.4463 589.153 48.2039 584.563 49.7192C580.018 51.2345 576.056 53.4425 572.679 56.3433C569.346 59.2007 566.726 62.7075 564.821 66.8638C562.96 71.02 562.029 75.7174 562.029 80.9561Z"/>
</mask>
<path d="M557.483 43.5498L558.151 44.294L558.151 44.2937L557.483 43.5498ZM575.796 32.8994L575.465 31.956L575.463 31.9566L575.796 32.8994ZM641.452 43.5498L640.781 44.2909L640.787 44.2969L641.452 43.5498ZM653.336 102.192L654.252 102.594L654.253 102.592L653.336 102.192ZM641.452 118.752L640.78 118.011L640.777 118.014L641.452 118.752ZM623.139 129.597L623.475 130.539L623.48 130.537L623.139 129.597ZM575.796 129.597L575.453 130.536L575.46 130.539L575.796 129.597ZM557.483 118.752L556.808 119.49L556.811 119.493L557.483 118.752ZM545.664 102.192L544.747 102.592L544.748 102.594L545.664 102.192ZM564.821 95.1133L563.907 95.5186L563.911 95.5264L564.821 95.1133ZM572.679 105.894L572.012 106.638L572.022 106.647L572.679 105.894ZM584.563 112.712L584.231 113.656L584.234 113.657L584.563 112.712ZM614.372 112.712L614.042 111.768L614.039 111.769L614.372 112.712ZM626.256 105.894L626.918 106.643L626.923 106.638L626.256 105.894ZM634.114 95.1133L633.203 94.7002L634.114 95.1133ZM626.256 56.3433L625.599 57.0977L625.605 57.1025L626.256 56.3433ZM614.372 49.7192L614.055 50.6679L614.058 50.6688L614.372 49.7192ZM584.563 49.7192L584.25 48.7697L584.247 48.7706L584.563 49.7192ZM572.679 56.3433L573.33 57.1025L573.331 57.1018L572.679 56.3433ZM564.821 66.8638L563.912 66.4471L563.909 66.455L564.821 66.8638ZM542.442 80.9561C542.442 73.418 543.826 66.5439 546.578 60.3194L544.749 59.5106C541.873 66.0146 540.442 73.1679 540.442 80.9561H542.442ZM546.578 60.3194C549.336 54.0817 553.193 48.7432 558.151 44.294L556.815 42.8056C551.642 47.4482 547.619 53.0199 544.749 59.5106L546.578 60.3194ZM558.151 44.2937C563.153 39.8002 569.141 36.3138 576.13 33.8422L575.463 31.9566C568.251 34.5072 562.03 38.121 556.815 42.8059L558.151 44.2937ZM576.128 33.8428C583.151 31.3742 590.938 30.1328 599.5 30.1328V28.1328C590.744 28.1328 582.729 29.4025 575.465 31.956L576.128 33.8428ZM599.5 30.1328C608.018 30.1328 615.784 31.374 622.807 33.8428L623.47 31.956C616.207 29.4027 608.213 28.1328 599.5 28.1328V30.1328ZM622.807 33.8428C629.839 36.3145 635.824 39.8003 640.781 44.2909L642.124 42.8087C636.949 38.121 630.726 34.5064 623.47 31.956L622.807 33.8428ZM640.787 44.2969C645.787 48.746 649.664 54.0836 652.422 60.3194L654.251 59.5106C651.38 53.018 647.334 47.4454 642.117 42.8027L640.787 44.2969ZM652.422 60.3194C655.174 66.5439 656.558 73.418 656.558 80.9561H658.558C658.558 73.1679 657.127 66.0146 654.251 59.5106L652.422 60.3194ZM656.558 80.9561C656.558 88.538 655.174 95.4789 652.42 101.792L654.253 102.592C657.127 96.0032 658.558 88.7869 658.558 80.9561H656.558ZM652.421 101.79C649.662 108.071 645.783 113.475 640.78 118.011L642.124 119.493C647.338 114.764 651.382 109.128 654.252 102.594L652.421 101.79ZM640.777 118.014C635.818 122.549 629.831 126.1 622.797 128.657L623.48 130.537C630.734 127.899 636.955 124.22 642.127 119.49L640.777 118.014ZM622.802 128.656C615.78 131.166 608.016 132.429 599.5 132.429V134.429C608.215 134.429 616.21 133.137 623.475 130.539L622.802 128.656ZM599.5 132.429C590.94 132.429 583.154 131.166 576.133 128.656L575.46 130.539C582.725 133.137 590.742 134.429 599.5 134.429V132.429ZM576.14 128.658C569.149 126.1 563.159 122.549 558.155 118.011L556.811 119.493C562.024 124.22 568.243 127.899 575.453 130.536L576.14 128.658ZM558.158 118.014C553.197 113.477 549.338 108.072 546.579 101.79L544.748 102.594C547.617 109.126 551.638 114.762 556.808 119.49L558.158 118.014ZM546.58 101.792C543.826 95.4789 542.442 88.538 542.442 80.9561H540.442C540.442 88.7869 541.873 96.0032 544.747 102.592L546.58 101.792ZM561.029 80.9561C561.029 86.3147 561.981 91.1747 563.907 95.5185L565.735 94.708C563.938 90.6528 563.029 86.0746 563.029 80.9561H561.029ZM563.911 95.5264C565.871 99.8482 568.572 103.556 572.012 106.638L573.347 105.149C570.119 102.257 567.581 98.7774 565.732 94.7002L563.911 95.5264ZM572.022 106.647C575.501 109.681 579.575 112.015 584.231 113.656L584.896 111.769C580.46 110.206 576.611 107.995 573.336 105.14L572.022 106.647ZM584.234 113.657C588.94 115.299 594.031 116.115 599.5 116.115V114.115C594.232 114.115 589.366 113.33 584.893 111.768L584.234 113.657ZM599.5 116.115C604.969 116.115 610.04 115.299 614.704 113.656L614.039 111.769C609.612 113.329 604.768 114.115 599.5 114.115V116.115ZM614.701 113.657C619.401 112.016 623.478 109.681 626.918 106.643L625.594 105.144C622.366 107.995 618.52 110.205 614.042 111.768L614.701 113.657ZM626.923 106.638C630.363 103.556 633.064 99.8482 635.024 95.5264L633.203 94.7002C631.354 98.7774 628.816 102.257 625.589 105.149L626.923 106.638ZM635.024 95.5264C636.996 91.1805 637.971 86.3178 637.971 80.9561H635.971C635.971 86.0715 635.042 90.647 633.203 94.7002L635.024 95.5264ZM637.971 80.9561C637.971 75.5946 636.996 70.7519 635.023 66.4471L633.205 67.2804C635.042 71.2882 635.971 75.8403 635.971 80.9561H637.971ZM635.023 66.4471C633.06 62.1649 630.355 58.5395 626.907 55.584L625.605 57.1025C628.824 59.8619 631.357 63.2501 633.205 67.2804L635.023 66.4471ZM626.912 55.5889C623.469 52.5931 619.389 50.3227 614.685 48.7697L614.058 50.6688C618.533 52.1464 622.375 54.292 625.599 57.0977L626.912 55.5889ZM614.688 48.7706C610.028 47.2174 604.963 46.4463 599.5 46.4463V48.4463C604.774 48.4463 609.623 49.1904 614.055 50.6679L614.688 48.7706ZM599.5 46.4463C594.037 46.4463 588.951 47.2175 584.25 48.7697L584.877 50.6688C589.355 49.1904 594.226 48.4463 599.5 48.4463V46.4463ZM584.247 48.7706C579.588 50.3237 575.51 52.5932 572.028 55.5847L573.331 57.1018C576.602 54.2919 580.447 52.1454 584.88 50.6679L584.247 48.7706ZM572.028 55.584C568.58 58.5395 565.875 62.1649 563.912 66.4471L565.73 67.2804C567.578 63.2501 570.111 59.8619 573.33 57.1025L572.028 55.584ZM563.909 66.455C561.981 70.7578 561.029 75.5976 561.029 80.9561H563.029C563.029 75.8373 563.938 71.2823 565.734 67.2726L563.909 66.455Z" fill="white" mask="url(#path-11-outside-6_21_643)"/>
<mask id="path-13-outside-7_21_643" maskUnits="userSpaceOnUse" x="671" y="28" width="120" height="107" fill="black">
<rect fill="white" x="671" y="28" width="120" height="107"/>
<path d="M684.158 101.802C687.838 103.88 691.561 105.764 695.328 107.452C699.138 109.097 703.077 110.504 707.147 111.673C711.217 112.799 715.481 113.665 719.94 114.271C724.443 114.877 729.227 115.18 734.292 115.18C740.397 115.18 745.592 114.791 749.878 114.011C754.165 113.189 757.65 112.085 760.334 110.699C763.062 109.271 765.031 107.582 766.244 105.634C767.499 103.686 768.127 101.564 768.127 99.2695C768.127 95.5895 766.59 92.6888 763.516 90.5674C760.442 88.4027 755.701 87.3203 749.294 87.3203C746.48 87.3203 743.514 87.5151 740.397 87.9048C737.28 88.2511 734.119 88.6408 730.916 89.0737C727.755 89.5067 724.616 89.918 721.499 90.3076C718.425 90.654 715.524 90.8271 712.797 90.8271C708.251 90.8271 703.878 90.2427 699.679 89.0737C695.522 87.9048 691.821 86.1514 688.574 83.8135C685.37 81.4756 682.816 78.5532 680.911 75.0464C679.006 71.5396 678.053 67.4482 678.053 62.7725C678.053 60.0016 678.421 57.2524 679.157 54.5249C679.937 51.7974 681.149 49.1997 682.794 46.7319C684.482 44.2209 686.647 41.9046 689.288 39.7832C691.929 37.6185 695.111 35.7568 698.834 34.1982C702.601 32.6396 706.931 31.4274 711.823 30.5615C716.758 29.6523 722.365 29.1978 728.643 29.1978C733.188 29.1978 737.756 29.4575 742.345 29.9771C746.934 30.4533 751.394 31.146 755.723 32.0552C760.096 32.9644 764.295 34.0684 768.322 35.3672C772.348 36.6227 776.093 38.0298 779.557 39.5884L770.53 56.2134C767.672 54.9578 764.598 53.8105 761.308 52.7715C758.018 51.6891 754.576 50.7583 750.982 49.979C747.389 49.1997 743.666 48.5936 739.812 48.1606C736.003 47.6844 732.106 47.4463 728.123 47.4463C722.451 47.4463 717.776 47.8576 714.096 48.6802C710.459 49.5028 707.558 50.5635 705.394 51.8623C703.229 53.1178 701.714 54.5465 700.848 56.1484C700.025 57.707 699.614 59.2656 699.614 60.8242C699.614 63.8548 700.978 66.3442 703.705 68.2925C706.433 70.1974 710.589 71.1499 716.174 71.1499C718.425 71.1499 721.001 70.9984 723.902 70.6953C726.846 70.349 729.92 69.981 733.124 69.5913C736.371 69.2017 739.661 68.8553 742.995 68.5522C746.372 68.2059 749.64 68.0327 752.801 68.0327C758.775 68.0327 764.057 68.7038 768.646 70.0459C773.279 71.388 777.154 73.3146 780.271 75.8257C783.388 78.2935 785.748 81.3024 787.35 84.8525C788.951 88.3594 789.752 92.2992 789.752 96.6719C789.752 102.517 788.389 107.734 785.661 112.323C782.977 116.869 779.124 120.722 774.102 123.882C769.123 127 763.105 129.381 756.048 131.026C748.991 132.628 741.133 133.429 732.474 133.429C726.759 133.429 721.174 133.061 715.719 132.325C710.264 131.632 705.026 130.636 700.003 129.337C695.025 127.995 690.262 126.415 685.716 124.597C681.214 122.735 677.036 120.7 673.183 118.492L684.158 101.802Z"/>
</mask>
<path d="M684.158 101.802L684.649 100.931L683.836 100.472L683.322 101.253L684.158 101.802ZM695.328 107.452L694.919 108.365L694.931 108.37L695.328 107.452ZM707.147 111.673L706.871 112.635L706.88 112.637L707.147 111.673ZM719.94 114.271L719.806 115.262L719.807 115.262L719.94 114.271ZM749.878 114.011L750.057 114.995L750.067 114.993L749.878 114.011ZM760.334 110.699L760.793 111.588L760.798 111.585L760.334 110.699ZM766.244 105.634L765.403 105.092L765.399 105.099L765.395 105.105L766.244 105.634ZM763.516 90.5674L762.94 91.385L762.948 91.3904L763.516 90.5674ZM740.397 87.9048L740.507 88.8988L740.521 88.8971L740.397 87.9048ZM730.916 89.0737L730.782 88.0827L730.78 88.083L730.916 89.0737ZM721.499 90.3076L721.611 91.3014L721.623 91.2999L721.499 90.3076ZM699.679 89.0737L699.408 90.0364L699.411 90.0371L699.679 89.0737ZM688.574 83.8135L687.984 84.6213L687.989 84.625L688.574 83.8135ZM679.157 54.5249L678.196 54.2502L678.194 54.2573L678.192 54.2644L679.157 54.5249ZM682.794 46.7319L681.964 46.1739L681.962 46.1772L682.794 46.7319ZM689.288 39.7832L689.914 40.5629L689.922 40.5566L689.288 39.7832ZM698.834 34.1982L698.452 33.2742L698.448 33.2758L698.834 34.1982ZM711.823 30.5615L711.997 31.5462L712.004 31.545L711.823 30.5615ZM742.345 29.9771L742.233 30.9707L742.242 30.9717L742.345 29.9771ZM755.723 32.0552L755.518 33.0338L755.52 33.0342L755.723 32.0552ZM768.322 35.3672L768.015 36.3189L768.024 36.3218L768.322 35.3672ZM779.557 39.5884L780.435 40.0655L780.95 39.1186L779.967 38.6765L779.557 39.5884ZM770.53 56.2134L770.128 57.1289L770.97 57.4989L771.409 56.6905L770.53 56.2134ZM761.308 52.7715L760.996 53.7215L761.007 53.7251L761.308 52.7715ZM739.812 48.1606L739.688 49.153L739.701 49.1544L739.812 48.1606ZM714.096 48.6802L713.878 47.7043L713.875 47.7048L714.096 48.6802ZM705.394 51.8623L705.895 52.7273L705.902 52.7236L705.908 52.7198L705.394 51.8623ZM700.848 56.1484L699.968 55.6729L699.963 55.6817L700.848 56.1484ZM703.705 68.2925L703.124 69.1063L703.132 69.1123L703.705 68.2925ZM723.902 70.6953L724.006 71.69L724.019 71.6885L723.902 70.6953ZM733.124 69.5913L733.004 68.5984L733.003 68.5986L733.124 69.5913ZM742.995 68.5522L743.085 69.5482L743.097 69.547L742.995 68.5522ZM768.646 70.0459L768.366 71.0057L768.368 71.0064L768.646 70.0459ZM780.271 75.8257L779.644 76.6045L779.65 76.6097L780.271 75.8257ZM787.35 84.8525L786.438 85.2638L786.44 85.268L787.35 84.8525ZM785.661 112.323L784.801 111.812L784.8 111.814L785.661 112.323ZM774.102 123.882L774.632 124.73L774.634 124.729L774.102 123.882ZM756.048 131.026L756.269 132.001L756.275 132L756.048 131.026ZM715.719 132.325L715.853 131.334L715.845 131.333L715.719 132.325ZM700.003 129.337L699.743 130.303L699.753 130.306L700.003 129.337ZM685.716 124.597L685.334 125.521L685.345 125.525L685.716 124.597ZM673.183 118.492L672.347 117.943L671.763 118.831L672.685 119.36L673.183 118.492ZM683.666 102.673C687.372 104.766 691.123 106.663 694.919 108.365L695.737 106.54C691.999 104.864 688.303 102.995 684.649 100.931L683.666 102.673ZM694.931 108.37C698.781 110.033 702.761 111.454 706.871 112.634L707.423 110.712C703.394 109.555 699.494 108.162 695.724 106.534L694.931 108.37ZM706.88 112.637C710.996 113.776 715.305 114.65 719.806 115.262L720.075 113.28C715.657 112.68 711.437 111.822 707.414 110.71L706.88 112.637ZM719.807 115.262C724.359 115.875 729.187 116.18 734.292 116.18V114.18C729.267 114.18 724.528 113.879 720.074 113.28L719.807 115.262ZM734.292 116.18C740.435 116.18 745.694 115.788 750.057 114.995L749.7 113.027C745.491 113.793 740.359 114.18 734.292 114.18V116.18ZM750.067 114.993C754.409 114.16 757.995 113.032 760.793 111.588L759.875 109.811C757.305 111.137 753.92 112.217 749.69 113.029L750.067 114.993ZM760.798 111.585C763.631 110.101 765.759 108.305 767.093 106.162L765.395 105.105C764.303 106.859 762.492 108.44 759.87 109.813L760.798 111.585ZM767.084 106.175C768.443 104.067 769.127 101.758 769.127 99.2695H767.127C767.127 101.37 766.556 103.304 765.403 105.092L767.084 106.175ZM769.127 99.2695C769.127 95.255 767.424 92.0491 764.084 89.7444L762.948 91.3904C765.756 93.3285 767.127 95.924 767.127 99.2695H769.127ZM764.092 89.7498C760.768 87.4088 755.778 86.3203 749.294 86.3203V88.3203C755.625 88.3203 760.117 89.3966 762.94 91.385L764.092 89.7498ZM749.294 86.3203C746.434 86.3203 743.427 86.5183 740.273 86.9125L740.521 88.8971C743.602 88.512 746.526 88.3203 749.294 88.3203V86.3203ZM740.287 86.9109C737.161 87.2582 733.993 87.6488 730.782 88.0827L731.049 90.0647C734.246 89.6328 737.398 89.2441 740.507 88.8987L740.287 86.9109ZM730.78 88.083C727.623 88.5154 724.488 88.9262 721.375 89.3153L721.623 91.2999C724.744 90.9098 727.887 90.4979 731.051 90.0645L730.78 88.083ZM721.387 89.3139C718.346 89.6566 715.482 89.8271 712.797 89.8271V91.8271C715.566 91.8271 718.505 91.6513 721.611 91.3013L721.387 89.3139ZM712.797 89.8271C708.338 89.8271 704.055 89.254 699.947 88.1104L699.411 90.0371C703.701 91.2314 708.164 91.8271 712.797 91.8271V89.8271ZM699.949 88.1111C695.897 86.9713 692.303 85.2663 689.158 83.0019L687.989 84.625C691.339 87.0364 695.148 88.8383 699.408 90.0364L699.949 88.1111ZM689.163 83.0057C686.08 80.7557 683.624 77.9465 681.789 74.5691L680.032 75.5237C682.007 79.1599 684.66 82.1955 687.984 84.6213L689.163 83.0057ZM681.789 74.5691C679.977 71.232 679.053 67.3102 679.053 62.7725H677.053C677.053 67.5863 678.035 71.8471 680.032 75.5237L681.789 74.5691ZM679.053 62.7725C679.053 60.0913 679.409 57.4297 680.123 54.7854L678.192 54.2644C677.433 57.0752 677.053 59.9119 677.053 62.7725H679.053ZM680.119 54.7996C680.868 52.176 682.036 49.6723 683.626 47.2866L681.962 46.1772C680.262 48.7271 679.005 51.4187 678.196 54.2502L680.119 54.7996ZM683.624 47.2899C685.25 44.8719 687.343 42.6285 689.914 40.5628L688.662 39.0036C685.952 41.1807 683.715 43.5698 681.964 46.1739L683.624 47.2899ZM689.922 40.5566C692.476 38.4633 695.571 36.6485 699.221 35.1207L698.448 33.2758C694.651 34.8652 691.382 36.7737 688.654 39.0098L689.922 40.5566ZM699.217 35.1223C702.904 33.5966 707.161 32.4021 711.997 31.5462L711.648 29.5768C706.7 30.4527 702.298 31.6827 698.452 33.2742L699.217 35.1223ZM712.004 31.545C716.867 30.6491 722.411 30.1978 728.643 30.1978V28.1978C722.319 28.1978 716.65 28.6556 711.642 29.5781L712.004 31.545ZM728.643 30.1978C733.15 30.1978 737.68 30.4553 742.233 30.9707L742.458 28.9834C737.832 28.4597 733.227 28.1978 728.643 28.1978V30.1978ZM742.242 30.9717C746.798 31.4445 751.223 32.132 755.518 33.0338L755.929 31.0765C751.564 30.1599 747.071 29.462 742.448 28.9824L742.242 30.9717ZM755.52 33.0342C759.859 33.9366 764.024 35.0316 768.015 36.3189L768.629 34.4155C764.567 33.1051 760.332 31.9922 755.927 31.0761L755.52 33.0342ZM768.024 36.3218C772.016 37.5667 775.723 38.9599 779.146 40.5003L779.967 38.6765C776.463 37.0997 772.68 35.6787 768.619 34.4125L768.024 36.3218ZM778.678 39.1112L769.651 55.7362L771.409 56.6905L780.435 40.0655L778.678 39.1112ZM770.932 55.2979C768.038 54.0264 764.93 52.8667 761.609 51.8179L761.007 53.7251C764.267 54.7544 767.306 55.8893 770.128 57.1289L770.932 55.2979ZM761.621 51.8216C758.295 50.7277 754.82 49.7879 751.194 49.0017L750.77 50.9563C754.332 51.7287 757.74 52.6506 760.996 53.7214L761.621 51.8216ZM751.194 49.0017C747.566 48.2149 743.809 47.6034 739.924 47.1669L739.701 49.1544C743.522 49.5838 747.212 50.1846 750.77 50.9563L751.194 49.0017ZM739.937 47.1684C736.084 46.6868 732.146 46.4463 728.123 46.4463V48.4463C732.066 48.4463 735.921 48.682 739.688 49.1529L739.937 47.1684ZM728.123 46.4463C722.411 46.4463 717.655 46.8598 713.878 47.7043L714.314 49.6561C717.896 48.8554 722.492 48.4463 728.123 48.4463V46.4463ZM713.875 47.7048C710.179 48.5408 707.167 49.632 704.879 51.0048L705.908 52.7198C707.949 51.495 710.739 50.4648 714.316 49.6555L713.875 47.7048ZM704.892 50.9973C702.625 52.312 700.948 53.859 699.968 55.6729L701.727 56.624C702.479 55.2341 703.833 53.9237 705.895 52.7273L704.892 50.9973ZM699.963 55.6817C699.075 57.3651 698.614 59.0827 698.614 60.8242H700.614C700.614 59.4485 700.975 58.049 701.732 56.6152L699.963 55.6817ZM698.614 60.8242C698.614 64.2156 700.166 66.9934 703.124 69.1062L704.286 67.4787C701.789 65.6951 700.614 63.494 700.614 60.8242H698.614ZM703.132 69.1123C706.107 71.1901 710.509 72.1499 716.174 72.1499V70.1499C710.669 70.1499 706.758 69.2048 704.278 67.4726L703.132 69.1123ZM716.174 72.1499C718.468 72.1499 721.08 71.9956 724.006 71.6899L723.798 69.7007C720.922 70.0012 718.382 70.1499 716.174 70.1499V72.1499ZM724.019 71.6885C726.964 71.3419 730.039 70.9738 733.244 70.584L733.003 68.5986C729.8 68.9881 726.728 69.356 723.785 69.7022L724.019 71.6885ZM733.243 70.5842C736.48 70.1957 739.761 69.8503 743.085 69.5481L742.904 67.5564C739.561 67.8603 736.261 68.2076 733.004 68.5984L733.243 70.5842ZM743.097 69.547C746.442 69.2039 749.677 69.0327 752.801 69.0327V67.0327C749.604 67.0327 746.301 67.2079 742.893 67.5575L743.097 69.547ZM752.801 69.0327C758.703 69.0327 763.887 69.6959 768.366 71.0057L768.927 69.0861C764.227 67.7116 758.848 67.0327 752.801 67.0327V69.0327ZM768.368 71.0064C772.899 72.319 776.648 74.1916 779.644 76.6044L780.898 75.0469C777.659 72.4376 773.659 70.457 768.925 69.0854L768.368 71.0064ZM779.65 76.6097C782.645 78.9804 784.903 81.8625 786.438 85.2638L788.261 84.4413C786.592 80.7423 784.132 77.6065 780.892 75.0416L779.65 76.6097ZM786.44 85.268C787.975 88.628 788.752 92.4233 788.752 96.6719H790.752C790.752 92.175 789.928 88.0907 788.259 84.437L786.44 85.268ZM788.752 96.6719C788.752 102.354 787.429 107.392 784.801 111.812L786.521 112.834C789.349 108.075 790.752 102.679 790.752 96.6719H788.752ZM784.8 111.814C782.206 116.207 778.473 119.95 773.569 123.036L774.634 124.729C779.774 121.494 783.747 117.531 786.522 112.831L784.8 111.814ZM773.571 123.035C768.705 126.082 762.794 128.426 755.821 130.052L756.275 132C763.415 130.335 769.541 127.918 774.632 124.73L773.571 123.035ZM755.826 130.051C748.855 131.633 741.073 132.429 732.474 132.429V134.429C741.193 134.429 749.127 133.622 756.269 132.001L755.826 130.051ZM732.474 132.429C726.802 132.429 721.262 132.063 715.853 131.334L715.586 133.316C721.087 134.058 726.716 134.429 732.474 134.429V132.429ZM715.845 131.333C710.43 130.645 705.233 129.657 700.254 128.369L699.753 130.306C704.818 131.616 710.099 132.619 715.593 133.317L715.845 131.333ZM700.264 128.372C695.321 127.039 690.595 125.471 686.088 123.668L685.345 125.525C689.929 127.359 694.729 128.951 699.743 130.303L700.264 128.372ZM686.098 123.673C681.632 121.826 677.493 119.809 673.68 117.625L672.685 119.36C676.579 121.591 680.796 123.644 685.334 125.521L686.098 123.673ZM674.018 119.042L684.993 102.352L683.322 101.253L672.347 117.943L674.018 119.042Z" fill="white" mask="url(#path-13-outside-7_21_643)"/>
</svg>
