<svg width="105" height="73" viewBox="0 0 105 73" fill="none" xmlns="http://www.w3.org/2000/svg">
<path fill-rule="evenodd" clip-rule="evenodd" d="M69.0604 33.3182V67H74.9329V46.8181C78.1258 49.8 82.3709 51.6364 87.0302 51.6364C96.9546 51.6364 105 43.3045 105 33.3182C105 23.3319 96.9546 15 87.0302 15C77.1449 15 69.1239 23.2662 69.0608 33.2L69.0604 33.3182ZM74.9329 33.2H69.0608C69.0605 33.2394 69.0604 33.2788 69.0604 33.3182C69.0604 38.6162 71.3248 43.4485 74.9329 46.8181V33.206C74.9359 39.9913 80.1687 45.4909 86.9128 45.4909C93.6588 45.4909 98.8926 39.9881 98.8926 33.2C98.8926 26.4119 93.6588 20.9091 86.9128 20.9091C80.1667 20.9091 74.9329 26.4119 74.9329 33.2Z" fill="white"/>
<path d="M35.9396 23.0364V17.3636L50.7383 17.3636L61.249 17.3636C63.228 17.3636 64.8322 18.9779 64.8322 20.9692C64.8322 22.636 64.2395 24.2478 63.1613 25.5131L54.4966 35.6818L44.1611 48.0909H65.302V54H35.9396V48.0909L56.6107 23.0364L35.9396 23.0364Z" fill="white"/>
<path fill-rule="evenodd" clip-rule="evenodd" d="M35.9396 35.6818C35.9396 25.6955 27.8942 17.3636 17.9698 17.3636C12.6214 17.3636 9.47935 19.9814 7.70666 23.7605C4.86878 24.4286 2.89528 25.6934 1.64834 28.0637C0.590293 30.3932 -1.17507e-07 32.9768 0 35.6818C4.33811e-07 45.6681 8.04535 54 17.9698 54C27.8942 54 35.9396 45.6681 35.9396 35.6818ZM7.70666 23.7605C10.3198 23.1454 13.6658 23.0364 17.8523 23.0364C24.5984 23.0364 30.0671 28.7756 30.0671 35.5636C30.0671 42.3517 24.5984 48.0909 17.8523 48.0909C11.1063 48.0909 5.63758 42.3517 5.63758 35.5636C5.63758 31.3934 6.13156 27.1185 7.70666 23.7605Z" fill="white"/>
</svg>
