<svg width="53" height="77" viewBox="0 0 53 77" fill="none" xmlns="http://www.w3.org/2000/svg">
<mask id="path-1-outside-1_56_385" maskUnits="userSpaceOnUse" x="-3" y="-2" width="58" height="81" fill="black">
<rect fill="white" x="-3" y="-2" width="58" height="81"/>
<path d="M2.92833 63.4258H20.2623V15.916C17.9837 16.4368 15.7864 17.1204 13.6705 17.9668C11.5872 18.8132 9.68288 19.8385 7.95762 21.043L0.340435 10.1543C3.13991 8.39648 5.98822 6.91536 8.88536 5.71094C11.815 4.47396 14.761 3.4974 17.7232 2.78125C20.718 2.03255 23.7128 1.49544 26.7076 1.16992C29.735 0.844401 32.746 0.681641 35.7408 0.681641L35.692 0.779297H35.7408V63.4258H52.2936V77H2.92833V63.4258Z"/>
</mask>
<path d="M2.92833 63.4258V61.4258H0.928326V63.4258H2.92833ZM20.2623 63.4258V65.4258H22.2623V63.4258H20.2623ZM20.2623 15.916H22.2623V13.4073L19.8167 13.9663L20.2623 15.916ZM13.6705 17.9668L12.9277 16.1098L12.9178 16.1139L13.6705 17.9668ZM7.95762 21.043L6.31881 22.1894L7.46414 23.8266L9.10247 22.6829L7.95762 21.043ZM0.340435 10.1543L-0.723103 8.46052L-2.50329 9.57831L-1.29837 11.3007L0.340435 10.1543ZM8.88536 5.71094L9.65313 7.55773L9.6633 7.55344L8.88536 5.71094ZM17.7232 2.78125L18.1932 4.72525L18.2008 4.72342L18.2083 4.72153L17.7232 2.78125ZM26.7076 1.16992L26.4938 -0.818617L26.4915 -0.818367L26.7076 1.16992ZM35.7408 0.681641L37.5297 1.57607L38.9769 -1.31836H35.7408V0.681641ZM35.692 0.779297L33.9031 -0.115129L32.4559 2.7793H35.692V0.779297ZM35.7408 0.779297H37.7408V-1.2207H35.7408V0.779297ZM35.7408 63.4258H33.7408V65.4258H35.7408V63.4258ZM52.2936 63.4258H54.2936V61.4258H52.2936V63.4258ZM52.2936 77V79H54.2936V77H52.2936ZM2.92833 77H0.928326V79H2.92833V77ZM2.92833 65.4258H20.2623V61.4258H2.92833V65.4258ZM22.2623 63.4258V15.916H18.2623V63.4258H22.2623ZM19.8167 13.9663C17.4393 14.5097 15.1425 15.2239 12.9277 16.1098L14.4133 19.8237C16.4303 19.017 18.528 18.364 20.708 17.8657L19.8167 13.9663ZM12.9178 16.1139C10.7056 17.0125 8.66845 18.1076 6.81277 19.4031L9.10247 22.6829C10.6973 21.5695 12.4687 20.6138 14.4233 19.8197L12.9178 16.1139ZM9.59643 19.8965L1.97924 9.00787L-1.29837 11.3007L6.31881 22.1894L9.59643 19.8965ZM1.40397 11.8481C4.11428 10.1463 6.86397 8.71724 9.65311 7.5577L8.1176 3.86417C5.11248 5.11349 2.16554 6.64672 -0.723103 8.46052L1.40397 11.8481ZM9.6633 7.55344C12.4976 6.35675 15.3407 5.41488 18.1932 4.72525L17.2533 0.837254C14.1813 1.57992 11.1325 2.59117 8.10741 3.86844L9.6633 7.55344ZM18.2083 4.72153C21.1168 3.9944 24.0218 3.47364 26.9237 3.15821L26.4915 -0.818367C23.4039 -0.482754 20.3192 0.0706997 17.2382 0.840965L18.2083 4.72153ZM26.9214 3.15846C29.879 2.84045 32.8186 2.68164 35.7408 2.68164V-1.31836C32.6734 -1.31836 29.591 -1.15165 26.4938 -0.818615L26.9214 3.15846ZM33.952 -0.212786L33.9031 -0.115129L37.4809 1.67372L37.5297 1.57607L33.952 -0.212786ZM35.692 2.7793H35.7408V-1.2207H35.692V2.7793ZM33.7408 0.779297V63.4258H37.7408V0.779297H33.7408ZM35.7408 65.4258H52.2936V61.4258H35.7408V65.4258ZM50.2936 63.4258V77H54.2936V63.4258H50.2936ZM52.2936 75H2.92833V79H52.2936V75ZM4.92833 77V63.4258H0.928326V77H4.92833Z" fill="white" mask="url(#path-1-outside-1_56_385)"/>
</svg>
