<svg width="69" height="78" viewBox="0 0 69 78" fill="none" xmlns="http://www.w3.org/2000/svg">
<mask id="path-1-outside-1_56_386" maskUnits="userSpaceOnUse" x="-3" y="-2" width="74" height="82" fill="black">
<rect fill="white" x="-3" y="-2" width="74" height="82"/>
<path d="M2.44841 64.7188L29.3527 46.2617C33.3892 43.4948 36.6932 41.0859 39.2648 39.0352C41.8364 36.9844 43.8547 35.1615 45.3195 33.5664C46.7843 31.9388 47.7935 30.474 48.3468 29.1719C48.9002 27.8698 49.1769 26.5677 49.1769 25.2656C49.1769 23.7682 48.8677 22.3685 48.2492 21.0664C47.6307 19.7643 46.6541 18.625 45.3195 17.6484C44.0174 16.6719 42.3247 15.9069 40.2414 15.3535C38.1906 14.8001 35.7329 14.5234 32.8683 14.5234C28.7017 14.5234 24.5513 15.1094 20.4172 16.2812C16.283 17.4531 12.0676 19.3249 7.77068 21.8965L0.641769 10.1777C5.42693 7.21549 10.6027 4.9043 16.1691 3.24414C21.7681 1.58398 27.6437 0.753906 33.7961 0.753906C39.1672 0.753906 43.8221 1.40495 47.7609 2.70703C51.7323 3.97656 55.0037 5.7181 57.5754 7.93164C60.1795 10.1452 62.1164 12.7168 63.3859 15.6465C64.6554 18.5762 65.2902 21.6849 65.2902 24.9727C65.2902 27.5117 64.867 29.9368 64.0207 32.248C63.1743 34.5592 61.6932 36.9518 59.5773 39.4258C57.4614 41.8997 54.5968 44.569 50.9836 47.4336C47.4028 50.2656 42.8781 53.4883 37.4093 57.1016L26.2765 64.4258H68.0734V78H2.44841V64.7188Z"/>
</mask>
<path d="M2.44841 64.7188L1.31701 63.0695L0.44841 63.6654V64.7188H2.44841ZM29.3527 46.2617L28.2219 44.6121L28.2213 44.6125L29.3527 46.2617ZM39.2648 39.0352L38.0178 37.4715L39.2648 39.0352ZM45.3195 33.5664L46.7926 34.9192L46.7994 34.9118L46.8061 34.9043L45.3195 33.5664ZM48.3468 29.1719L50.1875 29.9542L48.3468 29.1719ZM45.3195 17.6484L44.1195 19.2484L44.129 19.2555L44.1385 19.2625L45.3195 17.6484ZM40.2414 15.3535L39.7203 17.2845L39.7279 17.2865L40.2414 15.3535ZM7.77068 21.8965L6.062 22.9359L7.09397 24.6323L8.79776 23.6126L7.77068 21.8965ZM0.641769 10.1777L-0.410938 8.4772L-2.09829 9.52175L-1.0669 11.2172L0.641769 10.1777ZM16.1691 3.24414L15.6006 1.32665L15.5975 1.32756L16.1691 3.24414ZM47.7609 2.70703L47.1332 4.60596L47.1425 4.60906L47.1519 4.61206L47.7609 2.70703ZM57.5754 7.93164L56.2706 9.44747L56.2801 9.45552L57.5754 7.93164ZM50.9836 47.4336L52.2242 49.0023L52.2261 49.0008L50.9836 47.4336ZM37.4093 57.1016L38.5086 58.7724L38.5119 58.7702L37.4093 57.1016ZM26.2765 64.4258L25.1773 62.7549L19.5976 66.4258H26.2765V64.4258ZM68.0734 64.4258H70.0734V62.4258H68.0734V64.4258ZM68.0734 78V80H70.0734V78H68.0734ZM2.44841 78H0.44841V80H2.44841V78ZM3.57981 66.368L30.4841 47.9109L28.2213 44.6125L1.31701 63.0695L3.57981 66.368ZM30.4835 47.9114C34.5426 45.1289 37.8892 42.6903 40.5118 40.5988L38.0178 37.4715C35.4972 39.4816 32.2357 41.8607 28.2219 44.6121L30.4835 47.9114ZM40.5118 40.5988C43.1273 38.5131 45.232 36.6185 46.7926 34.9192L43.8464 32.2136C42.4773 33.7044 40.5456 35.4557 38.0178 37.4715L40.5118 40.5988ZM46.8061 34.9043C48.347 33.1922 49.5138 31.5394 50.1875 29.9542L46.5062 28.3896C46.0732 29.4085 45.2217 30.6854 43.8329 32.2285L46.8061 34.9043ZM50.1875 29.9542C50.8369 28.4263 51.1769 26.859 51.1769 25.2656H47.1769C47.1769 26.2764 46.9636 27.3133 46.5062 28.3896L50.1875 29.9542ZM51.1769 25.2656C51.1769 23.4832 50.8066 21.789 50.0557 20.2083L46.4426 21.9245C46.9288 22.948 47.1769 24.0532 47.1769 25.2656H51.1769ZM50.0557 20.2083C49.275 18.5646 48.0634 17.1779 46.5005 16.0344L44.1385 19.2625C45.2449 20.0721 45.9864 20.9641 46.4426 21.9245L50.0557 20.2083ZM46.5195 16.0484C44.9573 14.8767 43.0101 14.0196 40.7548 13.4205L39.7279 17.2865C41.6393 17.7942 43.0776 18.467 44.1195 19.2484L46.5195 16.0484ZM40.7624 13.4226C38.4945 12.8106 35.852 12.5234 32.8683 12.5234V16.5234C35.6138 16.5234 37.8867 16.7897 39.7203 17.2845L40.7624 13.4226ZM32.8683 12.5234C28.5115 12.5234 24.1777 13.1365 19.8717 14.3571L20.9626 18.2054C24.9249 17.0823 28.8918 16.5234 32.8683 16.5234V12.5234ZM19.8717 14.3571C15.5435 15.584 11.167 17.533 6.7436 20.1804L8.79776 23.6126C12.9681 21.1167 17.0226 19.3223 20.9626 18.2054L19.8717 14.3571ZM9.47935 20.857L2.35044 9.13829L-1.0669 11.2172L6.062 22.9359L9.47935 20.857ZM1.69448 11.8783C6.32473 9.01192 11.3381 6.77204 16.7407 5.16072L15.5975 1.32756C9.86736 3.03655 4.52912 5.41908 -0.410938 8.4772L1.69448 11.8783ZM16.7377 5.16162C22.1424 3.55905 27.8259 2.75391 33.7961 2.75391V-1.24609C27.4615 -1.24609 21.3937 -0.391083 15.6006 1.32666L16.7377 5.16162ZM33.7961 2.75391C39.0133 2.75391 43.4465 3.38723 47.1332 4.60596L48.3887 0.808102C44.1977 -0.577333 39.321 -1.24609 33.7961 -1.24609V2.75391ZM47.1519 4.61206C50.9245 5.81804 53.9433 7.44417 56.2706 9.44744L58.8801 6.41584C56.0642 3.99203 52.5401 2.13509 48.3699 0.802002L47.1519 4.61206ZM56.2801 9.45552C58.6677 11.485 60.4115 13.8126 61.5508 16.4417L65.221 14.8513C63.8212 11.621 61.6914 8.80538 58.8707 6.40776L56.2801 9.45552ZM61.5508 16.4417C62.7083 19.1129 63.2902 21.9501 63.2902 24.9727H67.2902C67.2902 21.4197 66.6026 18.0395 65.221 14.8513L61.5508 16.4417ZM63.2902 24.9727C63.2902 27.2846 62.9058 29.4764 62.1426 31.5603L65.8987 32.9358C66.8283 30.3973 67.2902 27.7388 67.2902 24.9727H63.2902ZM62.1426 31.5603C61.3999 33.5885 60.0655 35.7779 58.0574 38.1258L61.0972 40.7257C63.3209 38.1258 64.9487 35.53 65.8987 32.9358L62.1426 31.5603ZM58.0574 38.1258C56.0517 40.471 53.2915 43.0516 49.7411 45.8664L52.2261 49.0008C55.9022 46.0864 58.8712 43.3285 61.0972 40.7257L58.0574 38.1258ZM49.7429 45.8649C46.2213 48.6502 41.7467 51.8387 36.3068 55.4329L38.5119 58.7702C44.0095 55.1378 48.5844 51.8811 52.2242 49.0023L49.7429 45.8649ZM36.3101 55.4307L25.1773 62.7549L27.3758 66.0966L38.5086 58.7724L36.3101 55.4307ZM26.2765 66.4258H68.0734V62.4258H26.2765V66.4258ZM66.0734 64.4258V78H70.0734V64.4258H66.0734ZM68.0734 76H2.44841V80H68.0734V76ZM4.44841 78V64.7188H0.44841V78H4.44841Z" fill="white" mask="url(#path-1-outside-1_56_386)"/>
</svg>
