<svg width="70" height="79" viewBox="0 0 70 79" fill="none" xmlns="http://www.w3.org/2000/svg">
<mask id="path-1-outside-1_56_387" maskUnits="userSpaceOnUse" x="-3" y="-2" width="75" height="83" fill="black">
<rect fill="white" x="-3" y="-2" width="75" height="83"/>
<path d="M7.23161 58.8359C11.0728 60.724 15.1743 62.1074 19.5363 62.9863C23.9308 63.8327 28.2114 64.2559 32.3781 64.2559C36.089 64.2559 39.2954 63.9629 41.9972 63.377C44.6991 62.7585 46.9289 61.9284 48.6867 60.8867C50.4445 59.8451 51.7466 58.6081 52.5929 57.1758C53.4393 55.7435 53.8625 54.1973 53.8625 52.5371C53.8625 50.291 53.0975 48.2891 51.5676 46.5312C50.0376 44.7409 47.7101 43.4062 44.5851 42.5273C41.4927 41.6159 37.5702 41.2578 32.8176 41.4531C28.0975 41.6484 22.5311 42.5762 16.1183 44.2363L16.1672 32.8105L44.6828 14.2559H4.30193V0.681641H65.3859V13.9629L40.2883 29.8809C44.8781 29.8809 48.9797 30.4668 52.5929 31.6387C56.2062 32.8105 59.2498 34.4219 61.7238 36.4727C64.1978 38.5234 66.0858 40.9486 67.3879 43.748C68.6899 46.5475 69.341 49.5586 69.341 52.7812C69.341 56.5898 68.4946 60.0566 66.8019 63.1816C65.1418 66.2741 62.7166 68.9271 59.5265 71.1406C56.3364 73.3216 52.4302 75.0143 47.8078 76.2188C43.2179 77.4232 38.0096 78.0254 32.1828 78.0254C25.9979 78.0254 20.285 77.3743 15.0441 76.0723C9.80323 74.7376 4.82276 72.8984 0.102707 70.5547L7.23161 58.8359Z"/>
</mask>
<path d="M7.23161 58.8359L8.11385 57.041L6.47311 56.2346L5.52294 57.7965L7.23161 58.8359ZM19.5363 62.9863L19.1413 64.9469L19.1497 64.9486L19.1581 64.9502L19.5363 62.9863ZM41.9972 63.377L42.4211 65.3315L42.4323 65.3291L42.4435 65.3265L41.9972 63.377ZM48.6867 60.8867L47.6671 59.1661L48.6867 60.8867ZM51.5676 46.5312L50.0471 47.8306L50.053 47.8375L50.0589 47.8443L51.5676 46.5312ZM44.5851 42.5273L44.0197 44.4458L44.0316 44.4493L44.0436 44.4526L44.5851 42.5273ZM32.8176 41.4531L32.7354 39.4548L32.7349 39.4548L32.8176 41.4531ZM16.1183 44.2363L14.1184 44.2278L14.1073 46.8229L16.6196 46.1725L16.1183 44.2363ZM16.1672 32.8105L15.0764 31.1342L14.1718 31.7228L14.1672 32.802L16.1672 32.8105ZM44.6828 14.2559L45.7736 15.9322L51.4236 12.2559H44.6828V14.2559ZM4.30193 14.2559H2.30193V16.2559H4.30193V14.2559ZM4.30193 0.681641V-1.31836H2.30193V0.681641H4.30193ZM65.3859 0.681641H67.3859V-1.31836H65.3859V0.681641ZM65.3859 13.9629L66.4571 15.6518L67.3859 15.0628V13.9629H65.3859ZM40.2883 29.8809L39.2171 28.1919L33.4007 31.8809H40.2883V29.8809ZM67.3879 43.748L65.5744 44.5915L67.3879 43.748ZM66.8019 63.1816L65.0433 62.2291L65.0398 62.2357L66.8019 63.1816ZM59.5265 71.1406L60.6553 72.7917L60.6667 72.7838L59.5265 71.1406ZM47.8078 76.2188L47.3035 74.2834L47.3001 74.2842L47.8078 76.2188ZM15.0441 76.0723L14.5505 78.0104L14.5619 78.0133L15.0441 76.0723ZM0.102707 70.5547L-1.60596 69.5152L-2.73846 71.3769L-0.786774 72.346L0.102707 70.5547ZM6.34938 60.6308C10.3511 62.5978 14.6171 64.0353 19.1413 64.9469L19.9313 61.0257C15.7315 60.1795 11.7944 58.8501 8.11385 57.041L6.34938 60.6308ZM19.1581 64.9502C23.6681 65.8188 28.0755 66.2559 32.3781 66.2559V62.2559C28.3473 62.2559 24.1935 61.8465 19.9145 61.0224L19.1581 64.9502ZM32.3781 66.2559C36.1865 66.2559 39.542 65.9559 42.4211 65.3315L41.5734 61.4224C39.0489 61.9699 35.9916 62.2559 32.3781 62.2559V66.2559ZM42.4435 65.3265C45.2803 64.6771 47.7197 63.7846 49.7063 62.6073L47.6671 59.1661C46.1381 60.0722 44.1178 60.8398 41.5509 61.4274L42.4435 65.3265ZM49.7063 62.6073C51.6882 61.4328 53.2624 59.9743 54.3148 58.1932L50.8711 56.1583C50.2308 57.2418 49.2008 58.2573 47.6671 59.1661L49.7063 62.6073ZM54.3148 58.1932C55.3428 56.4535 55.8625 54.556 55.8625 52.5371H51.8625C51.8625 53.8385 51.5358 55.0335 50.8711 56.1583L54.3148 58.1932ZM55.8625 52.5371C55.8625 49.7889 54.91 47.3251 53.0762 45.2182L50.0589 47.8443C51.285 49.253 51.8625 50.7931 51.8625 52.5371H55.8625ZM53.088 45.2319C51.2205 43.0465 48.493 41.5488 45.1266 40.602L44.0436 44.4526C46.9273 45.2637 48.8547 46.4352 50.0471 47.8306L53.088 45.2319ZM45.1506 40.6089C41.7737 39.6137 37.6129 39.2544 32.7354 39.4548L32.8997 43.4514C37.5274 43.2613 41.2117 43.6181 44.0197 44.4458L45.1506 40.6089ZM32.7349 39.4548C27.8298 39.6578 22.1167 40.6175 15.6171 42.3002L16.6196 46.1725C22.9455 44.5348 28.3652 43.6391 32.9002 43.4514L32.7349 39.4548ZM18.1183 44.2449L18.1671 32.8191L14.1672 32.802L14.1184 44.2278L18.1183 44.2449ZM17.2579 34.4869L45.7736 15.9322L43.592 12.5795L15.0764 31.1342L17.2579 34.4869ZM44.6828 12.2559H4.30193V16.2559H44.6828V12.2559ZM6.30193 14.2559V0.681641H2.30193V14.2559H6.30193ZM4.30193 2.68164H65.3859V-1.31836H4.30193V2.68164ZM63.3859 0.681641V13.9629H67.3859V0.681641H63.3859ZM64.3147 12.2739L39.2171 28.1919L41.3595 31.5698L66.4571 15.6518L64.3147 12.2739ZM40.2883 31.8809C44.7107 31.8809 48.5984 32.4457 51.9759 33.5411L53.21 29.7362C49.3609 28.4879 45.0454 27.8809 40.2883 27.8809V31.8809ZM51.9759 33.5411C55.3915 34.6489 58.2003 36.1497 60.4474 38.0124L63.0002 34.9329C60.2993 32.694 57.021 30.9722 53.21 29.7362L51.9759 33.5411ZM60.4474 38.0124C62.7025 39.8818 64.4026 42.0722 65.5744 44.5915L69.2013 42.9046C67.7689 39.825 65.693 37.1651 63.0002 34.9329L60.4474 38.0124ZM65.5744 44.5915C66.7482 47.1152 67.341 49.8369 67.341 52.7812H71.341C71.341 49.2803 70.6317 45.9799 69.2013 42.9046L65.5744 44.5915ZM67.341 52.7812C67.341 56.2817 66.5663 59.4174 65.0433 62.2291L68.5605 64.1342C70.4229 60.6959 71.341 56.898 71.341 52.7812H67.341ZM65.0398 62.2357C63.5443 65.0213 61.345 67.4445 58.3864 69.4975L60.6667 72.7838C64.0883 70.4097 66.7392 67.5269 68.5641 64.1276L65.0398 62.2357ZM58.3978 69.4896C55.4368 71.5139 51.7536 73.1238 47.3035 74.2834L48.3121 78.1541C53.1068 76.9048 57.2361 75.1293 60.6553 72.7916L58.3978 69.4896ZM47.3001 74.2842C42.9086 75.4366 37.8756 76.0254 32.1828 76.0254V80.0254C38.1436 80.0254 43.5273 79.4097 48.3154 78.1533L47.3001 74.2842ZM32.1828 76.0254C26.1374 76.0254 20.5886 75.389 15.5263 74.1313L14.5619 78.0133C19.9814 79.3597 25.8584 80.0254 32.1828 80.0254V76.0254ZM15.5377 74.1341C10.43 72.8334 5.58254 71.0427 0.992188 68.7634L-0.786774 72.346C4.06298 74.7542 9.17648 76.6419 14.5505 78.0104L15.5377 74.1341ZM1.81138 71.5941L8.94028 59.8754L5.52294 57.7965L-1.60596 69.5152L1.81138 71.5941Z" fill="white" mask="url(#path-1-outside-1_56_387)"/>
</svg>
