<svg width="78" height="77" viewBox="0 0 78 77" fill="none" xmlns="http://www.w3.org/2000/svg">
<mask id="path-1-outside-1_56_388" maskUnits="userSpaceOnUse" x="-2" y="-2" width="82" height="81" fill="black">
<rect fill="white" x="-2" y="-2" width="82" height="81"/>
<path d="M0.625633 47.1172L45.2545 0.681641H60.7331V47.1172H77.1881V60.6914H60.7331V77H45.2545V60.6914H0.527977L0.625633 47.1172ZM45.2545 47.1172V20.2617L19.1803 47.1172H45.2545Z"/>
</mask>
<path d="M0.625633 47.1172L-0.816353 45.7313L-1.36858 46.3059L-1.37431 47.1028L0.625633 47.1172ZM45.2545 0.681641V-1.31836H44.4028L43.8126 -0.704243L45.2545 0.681641ZM60.7331 0.681641H62.7331V-1.31836H60.7331V0.681641ZM60.7331 47.1172H58.7331V49.1172H60.7331V47.1172ZM77.1881 47.1172H79.1881V45.1172H77.1881V47.1172ZM77.1881 60.6914V62.6914H79.1881V60.6914H77.1881ZM60.7331 60.6914V58.6914H58.7331V60.6914H60.7331ZM60.7331 77V79H62.7331V77H60.7331ZM45.2545 77H43.2545V79H45.2545V77ZM45.2545 60.6914H47.2545V58.6914H45.2545V60.6914ZM0.527977 60.6914L-1.47197 60.677L-1.48646 62.6914H0.527977V60.6914ZM45.2545 47.1172V49.1172H47.2545V47.1172H45.2545ZM45.2545 20.2617H47.2545V15.3307L43.8196 18.8685L45.2545 20.2617ZM19.1803 47.1172L17.7454 45.724L14.4509 49.1172H19.1803V47.1172ZM2.06762 48.5031L46.6965 2.06752L43.8126 -0.704243L-0.816353 45.7313L2.06762 48.5031ZM45.2545 2.68164H60.7331V-1.31836H45.2545V2.68164ZM58.7331 0.681641V47.1172H62.7331V0.681641H58.7331ZM60.7331 49.1172H77.1881V45.1172H60.7331V49.1172ZM75.1881 47.1172V60.6914H79.1881V47.1172H75.1881ZM77.1881 58.6914H60.7331V62.6914H77.1881V58.6914ZM58.7331 60.6914V77H62.7331V60.6914H58.7331ZM60.7331 75H45.2545V79H60.7331V75ZM47.2545 77V60.6914H43.2545V77H47.2545ZM45.2545 58.6914H0.527977V62.6914H45.2545V58.6914ZM2.52792 60.7058L2.62558 47.1316L-1.37431 47.1028L-1.47197 60.677L2.52792 60.7058ZM47.2545 47.1172V20.2617H43.2545V47.1172H47.2545ZM43.8196 18.8685L17.7454 45.724L20.6152 48.5104L46.6895 21.6549L43.8196 18.8685ZM19.1803 49.1172H45.2545V45.1172H19.1803V49.1172Z" fill="white" mask="url(#path-1-outside-1_56_388)"/>
</svg>
