<svg width="73" height="79" viewBox="0 0 73 79" fill="none" xmlns="http://www.w3.org/2000/svg">
<mask id="path-1-outside-1_56_389" maskUnits="userSpaceOnUse" x="-3" y="-2" width="78" height="83" fill="black">
<rect fill="white" x="-3" y="-2" width="78" height="83"/>
<path d="M7.64568 58.8359C9.50114 59.7799 11.5031 60.5938 13.6515 61.2773C15.8325 61.9284 18.0623 62.4818 20.341 62.9375C22.6522 63.3932 24.9634 63.735 27.2746 63.9629C29.6183 64.1582 31.897 64.2559 34.1105 64.2559C38.0168 64.2559 41.3859 63.9792 44.2179 63.4258C47.0825 62.8398 49.4263 62.026 51.2492 60.9844C53.1047 59.9427 54.4718 58.7057 55.3508 57.2734C56.2622 55.8086 56.7179 54.1973 56.7179 52.4395C56.7179 50.6491 56.2459 49.0052 55.3019 47.5078C54.3905 46.0104 53.007 44.7246 51.1515 43.6504C49.3286 42.5762 47.0174 41.7461 44.2179 41.1602C41.451 40.5417 38.2121 40.2324 34.5011 40.2324C32.841 40.2324 30.9692 40.3138 28.8859 40.4766C26.8026 40.6068 24.589 40.8346 22.2453 41.1602C19.9015 41.4857 17.4601 41.9414 14.9211 42.5273C12.382 43.0807 9.81039 43.7643 7.20622 44.5781V0.681641H65.7511V14.4023H21.5129V29.1973C23.9543 28.6439 26.5096 28.1882 29.1789 27.8301C31.8481 27.4395 34.8267 27.2441 38.1144 27.2441C43.4855 27.2441 48.287 27.8301 52.5187 29.002C56.7505 30.1738 60.3149 31.8503 63.2121 34.0312C66.1418 36.2122 68.3716 38.849 69.9015 41.9414C71.4315 45.0013 72.1965 48.4355 72.1965 52.2441C72.1965 56.1829 71.3664 59.7474 69.7062 62.9375C68.0786 66.0951 65.6535 68.7969 62.4308 71.043C59.2407 73.2891 55.3019 75.0143 50.6144 76.2188C45.9595 77.4232 40.6047 78.0254 34.55 78.0254C31.425 78.0254 28.3162 77.8464 25.2238 77.4883C22.1639 77.1628 19.1854 76.6908 16.2883 76.0723C13.3911 75.4212 10.6079 74.64 7.93864 73.7285C5.30193 72.7845 2.82797 71.7266 0.516769 70.5547L7.64568 58.8359Z"/>
</mask>
<path d="M7.64568 58.8359L8.55259 57.0534L6.90042 56.2128L5.937 57.7965L7.64568 58.8359ZM13.6515 61.2773L13.0451 63.1832L13.0622 63.1886L13.0795 63.1938L13.6515 61.2773ZM20.341 62.9375L19.9488 64.8987L19.9541 64.8997L20.341 62.9375ZM27.2746 63.9629L27.0784 65.9532L27.0934 65.9547L27.1085 65.956L27.2746 63.9629ZM44.2179 63.4258L44.6015 65.3887L44.6101 65.387L44.6187 65.3852L44.2179 63.4258ZM51.2492 60.9844L50.2701 59.2404L50.2635 59.2441L50.2569 59.2479L51.2492 60.9844ZM55.3508 57.2734L53.6526 56.2168L53.6461 56.2274L55.3508 57.2734ZM55.3019 47.5078L53.5935 48.5477L53.6017 48.5611L53.6101 48.5744L55.3019 47.5078ZM51.1515 43.6504L50.1362 45.3735L50.1428 45.3774L50.1495 45.3812L51.1515 43.6504ZM44.2179 41.1602L43.7816 43.112L43.7949 43.115L43.8082 43.1177L44.2179 41.1602ZM28.8859 40.4766L29.0107 42.4727L29.0262 42.4717L29.0417 42.4705L28.8859 40.4766ZM14.9211 42.5273L15.347 44.4815L15.3589 44.4789L15.3708 44.4761L14.9211 42.5273ZM7.20622 44.5781H5.20622V47.2985L7.80277 46.4871L7.20622 44.5781ZM7.20622 0.681641V-1.31836H5.20622V0.681641H7.20622ZM65.7511 0.681641H67.7511V-1.31836H65.7511V0.681641ZM65.7511 14.4023V16.4023H67.7511V14.4023H65.7511ZM21.5129 14.4023V12.4023H19.5129V14.4023H21.5129ZM21.5129 29.1973H19.5129V31.7013L21.955 31.1478L21.5129 29.1973ZM29.1789 27.8301L29.4448 29.8123L29.4566 29.8107L29.4685 29.809L29.1789 27.8301ZM63.2121 34.0312L62.0092 35.6291L62.0178 35.6355L63.2121 34.0312ZM69.9015 41.9414L68.1089 42.8283L68.1127 42.8358L69.9015 41.9414ZM69.7062 62.9375L67.9321 62.0142L67.9285 62.0211L69.7062 62.9375ZM62.4308 71.043L61.2872 69.4022L61.2794 69.4076L62.4308 71.043ZM50.6144 76.2188L50.1167 74.2817L50.1134 74.2825L50.6144 76.2188ZM25.2238 77.4883L25.4538 75.5016L25.4446 75.5005L25.4354 75.4995L25.2238 77.4883ZM16.2883 76.0723L15.8498 78.0236L15.8602 78.026L15.8707 78.0282L16.2883 76.0723ZM7.93864 73.7285L7.2645 75.6115L7.27839 75.6164L7.29236 75.6212L7.93864 73.7285ZM0.516769 70.5547L-1.1919 69.5152L-2.31492 71.3613L-0.387691 72.3385L0.516769 70.5547ZM6.73876 60.6185C8.69847 61.6155 10.8018 62.4694 13.0451 63.1832L14.2579 59.3715C12.2044 58.7181 10.3038 57.9444 8.55259 57.0534L6.73876 60.6185ZM13.0795 63.1938C15.3209 63.8629 17.6108 64.4311 19.9488 64.8987L20.7332 60.9763C18.5139 60.5325 16.3441 59.9939 14.2236 59.3609L13.0795 63.1938ZM19.9541 64.8997C22.3274 65.3677 24.7023 65.719 27.0784 65.9532L27.4708 61.9725C25.2245 61.7511 22.9769 61.4188 20.7279 60.9753L19.9541 64.8997ZM27.1085 65.956C29.5041 66.1556 31.8382 66.2559 34.1105 66.2559V62.2559C31.9557 62.2559 29.7326 62.1608 27.4407 61.9698L27.1085 65.956ZM34.1105 66.2559C38.1036 66.2559 41.6077 65.9736 44.6015 65.3887L43.8344 61.4629C41.1641 61.9847 37.9299 62.2559 34.1105 62.2559V66.2559ZM44.6187 65.3852C47.6159 64.7722 50.1779 63.9 52.2415 62.7209L50.2569 59.2479C48.6746 60.1521 46.5492 60.9075 43.8171 61.4664L44.6187 65.3852ZM52.2283 62.7283C54.3035 61.5633 55.9567 60.11 57.0554 58.3195L53.6461 56.2274C52.987 57.3015 51.9059 58.3221 50.2701 59.2404L52.2283 62.7283ZM57.0489 58.33C58.1615 56.5418 58.7179 54.5633 58.7179 52.4395H54.7179C54.7179 53.8312 54.3629 55.0754 53.6526 56.2168L57.0489 58.33ZM58.7179 52.4395C58.7179 50.2762 58.1415 48.2618 56.9938 46.4412L53.6101 48.5744C54.3503 49.7486 54.7179 51.022 54.7179 52.4395H58.7179ZM57.0103 46.4679C55.8902 44.6277 54.2346 43.1244 52.1536 41.9195L50.1495 45.3812C51.7794 46.3249 52.8908 47.3932 53.5935 48.5477L57.0103 46.4679ZM52.1669 41.9273C50.1032 40.7112 47.5705 39.8185 44.6277 39.2026L43.8082 43.1177C46.4643 43.6737 48.554 44.4411 50.1362 45.3735L52.1669 41.9273ZM44.6542 39.2083C41.708 38.5498 38.3166 38.2324 34.5011 38.2324V42.2324C38.1076 42.2324 41.194 42.5336 43.7816 43.112L44.6542 39.2083ZM34.5011 38.2324C32.7778 38.2324 30.8527 38.3168 28.7301 38.4826L29.0417 42.4705C31.0858 42.3108 32.9042 42.2324 34.5011 42.2324V38.2324ZM28.7612 38.4805C26.6214 38.6142 24.3574 38.8476 21.9701 39.1792L22.5204 43.1411C24.8207 42.8217 26.9837 42.5993 29.0107 42.4727L28.7612 38.4805ZM21.9701 39.1792C19.5622 39.5136 17.0624 39.9806 14.4713 40.5786L15.3708 44.4761C17.8579 43.9022 20.2408 43.4577 22.5204 43.1411L21.9701 39.1792ZM14.4952 40.5732C11.8958 41.1397 9.26726 41.8387 6.60967 42.6692L7.80277 46.4871C10.3535 45.69 12.8682 45.0217 15.347 44.4815L14.4952 40.5732ZM9.20622 44.5781V0.681641H5.20622V44.5781H9.20622ZM7.20622 2.68164H65.7511V-1.31836H7.20622V2.68164ZM63.7511 0.681641V14.4023H67.7511V0.681641H63.7511ZM65.7511 12.4023H21.5129V16.4023H65.7511V12.4023ZM19.5129 14.4023V29.1973H23.5129V14.4023H19.5129ZM21.955 31.1478C24.334 30.6085 26.8303 30.163 29.4448 29.8123L28.913 25.8478C26.1889 26.2133 23.5746 26.6792 21.0707 27.2467L21.955 31.1478ZM29.4685 29.809C32.0238 29.4351 34.9035 29.2441 38.1144 29.2441V25.2441C34.7499 25.2441 31.6725 25.4439 28.8893 25.8512L29.4685 29.809ZM38.1144 29.2441C43.3437 29.2441 47.9606 29.815 51.985 30.9294L53.0525 27.0745C48.6133 25.8452 43.6273 25.2441 38.1144 25.2441V29.2441ZM51.985 30.9294C56.0246 32.0481 59.3499 33.6271 62.0092 35.6291L64.415 32.4334C61.28 30.0734 57.4764 28.2996 53.0525 27.0745L51.985 30.9294ZM62.0178 35.6355C64.7095 37.6393 66.7272 40.0354 68.1089 42.8283L71.6941 41.0545C70.016 37.6625 67.5741 34.7852 64.4064 32.427L62.0178 35.6355ZM68.1127 42.8358C69.4887 45.5878 70.1965 48.7104 70.1965 52.2441H74.1965C74.1965 48.1607 73.3743 44.4148 71.6904 41.047L68.1127 42.8358ZM70.1965 52.2441C70.1965 55.8927 69.4301 59.1357 67.9321 62.0142L71.4804 63.8608C73.3027 60.3591 74.1965 56.4732 74.1965 52.2441H70.1965ZM67.9285 62.0211C66.4654 64.8595 64.2715 67.3223 61.2872 69.4022L63.5744 72.6838C67.0355 70.2715 69.6918 67.3306 71.4839 63.8539L67.9285 62.0211ZM61.2794 69.4076C58.3284 71.4854 54.6242 73.1235 50.1167 74.2817L51.1121 78.1558C55.9797 76.9051 60.1531 75.0927 63.5822 72.6783L61.2794 69.4076ZM50.1134 74.2825C45.6579 75.4353 40.4771 76.0254 34.55 76.0254V80.0254C40.7322 80.0254 46.261 79.411 51.1154 78.155L50.1134 74.2825ZM34.55 76.0254C31.5015 76.0254 28.4696 75.8508 25.4538 75.5016L24.9938 79.475C28.1629 79.842 31.3484 80.0254 34.55 80.0254V76.0254ZM25.4354 75.4995C22.442 75.1811 19.5323 74.7198 16.7058 74.1163L15.8707 78.0282C18.8384 78.6618 21.8858 79.1445 25.0122 79.4771L25.4354 75.4995ZM16.7268 74.1209C13.8962 73.4849 11.1826 72.7228 8.58493 71.8358L7.29236 75.6212C10.0332 76.5571 12.886 77.3576 15.8498 78.0236L16.7268 74.1209ZM8.61279 71.8456C6.04859 70.9275 3.65211 69.902 1.42123 68.7709L-0.387691 72.3385C2.00383 73.5511 4.55526 74.6415 7.2645 75.6115L8.61279 71.8456ZM2.22544 71.5941L9.35435 59.8754L5.937 57.7965L-1.1919 69.5152L2.22544 71.5941Z" fill="white" mask="url(#path-1-outside-1_56_389)"/>
</svg>
