<svg width="74" height="80" viewBox="0 0 74 80" fill="none" xmlns="http://www.w3.org/2000/svg">
<mask id="path-1-outside-1_56_390" maskUnits="userSpaceOnUse" x="-2" y="-2" width="78" height="84" fill="black">
<rect fill="white" x="-2" y="-2" width="78" height="84"/>
<path d="M0.772118 41.9648C0.772118 35.0312 1.79751 28.9928 3.84829 23.8496C5.93162 18.6738 8.76365 14.377 12.3444 10.959C15.9577 7.54102 20.2057 4.98568 25.0885 3.29297C29.9713 1.60026 35.2448 0.753906 40.9088 0.753906C43.2851 0.753906 45.694 0.884115 48.1354 1.14453C50.6094 1.3724 53.0345 1.74674 55.4108 2.26758C57.7871 2.78841 60.082 3.47201 62.2956 4.31836C64.5416 5.13216 66.625 6.10872 68.5456 7.24805L61.6608 18.9668C60.2285 18.153 58.6985 17.4694 57.0709 16.916C55.4759 16.3301 53.8157 15.8743 52.0905 15.5488C50.3652 15.1908 48.6237 14.9303 46.8659 14.7676C45.1081 14.6048 43.3828 14.5234 41.6901 14.5234C37.914 14.5234 34.4961 15.0117 31.4362 15.9883C28.4088 16.9648 25.7884 18.3483 23.5749 20.1387C21.3613 21.929 19.5872 24.0775 18.2526 26.584C16.9505 29.0579 16.1367 31.8086 15.8112 34.8359C17.5039 33.5013 19.3756 32.3457 21.4264 31.3691C23.4772 30.3926 25.6419 29.5951 27.9206 28.9766C30.2318 28.3255 32.5918 27.8535 35.0006 27.5605C37.442 27.235 39.8834 27.0723 42.3249 27.0723C47.0775 27.0723 51.3906 27.6419 55.2643 28.7812C59.1706 29.9206 62.5071 31.5645 65.2741 33.7129C68.041 35.8613 70.1732 38.4818 71.6706 41.5742C73.2005 44.6341 73.9655 48.1172 73.9655 52.0234C73.9655 55.8646 73.2005 59.429 71.6706 62.7168C70.1732 66.0046 67.9433 68.8691 64.9811 71.3105C62.0189 73.7194 58.3405 75.6237 53.9459 77.0234C49.5514 78.3906 44.457 79.0742 38.6627 79.0742C33.0312 79.0742 27.888 78.3581 23.2331 76.9258C18.5781 75.4935 14.5905 73.2637 11.2702 70.2363C7.94985 67.209 5.36196 63.3678 3.50649 58.7129C1.68358 54.0254 0.772118 48.4427 0.772118 41.9648ZM16.153 49.1426C16.9342 54.4811 19.278 58.5176 23.1842 61.252C27.0905 63.9538 32.2174 65.3047 38.5651 65.3047C41.7552 65.3047 44.5872 64.9792 47.0612 64.3281C49.5351 63.6771 51.6185 62.7819 53.3112 61.6426C55.0039 60.4707 56.2897 59.0872 57.1686 57.4922C58.0475 55.8971 58.487 54.1556 58.487 52.2676C58.487 50.6725 58.1452 49.1751 57.4616 47.7754C56.778 46.3757 55.7038 45.1712 54.2389 44.1621C52.8066 43.1204 50.9512 42.3066 48.6725 41.7207C46.3939 41.1022 43.6432 40.793 40.4206 40.793C37.7187 40.793 35.1634 41.0046 32.7545 41.4277C30.3457 41.8509 28.1159 42.4368 26.0651 43.1855C24.0143 43.9342 22.1426 44.8132 20.4499 45.8223C18.7897 46.8314 17.3574 47.9382 16.153 49.1426Z"/>
</mask>
<path d="M3.84829 23.8496L1.99294 23.1028L1.99053 23.1089L3.84829 23.8496ZM12.3444 10.959L10.97 9.50603L10.9634 9.51227L12.3444 10.959ZM48.1354 1.14453L47.9233 3.13325L47.9376 3.13478L47.952 3.1361L48.1354 1.14453ZM55.4108 2.26758L54.9826 4.2212L55.4108 2.26758ZM62.2956 4.31836L61.5813 6.18646L61.5977 6.19275L61.6143 6.19874L62.2956 4.31836ZM68.5456 7.24805L70.27 8.26114L71.2788 6.54402L69.566 5.52794L68.5456 7.24805ZM61.6608 18.9668L60.6728 20.7057L62.3867 21.6795L63.3852 19.9799L61.6608 18.9668ZM57.0709 16.916L56.3813 18.7934L56.4041 18.8017L56.4271 18.8096L57.0709 16.916ZM52.0905 15.5488L51.684 17.5071L51.7018 17.5108L51.7197 17.5142L52.0905 15.5488ZM31.4362 15.9883L30.8281 14.083L30.8222 14.0849L31.4362 15.9883ZM23.5749 20.1387L22.3171 18.5836L23.5749 20.1387ZM18.2526 26.584L16.4872 25.644L16.4827 25.6525L18.2526 26.584ZM15.8112 34.8359L13.8226 34.6221L13.3141 39.3517L17.0495 36.4065L15.8112 34.8359ZM27.9206 28.9766L28.4445 30.9067L28.4537 30.9042L28.4628 30.9016L27.9206 28.9766ZM35.0006 27.5605L35.2421 29.5459L35.2535 29.5445L35.265 29.543L35.0006 27.5605ZM55.2643 28.7812L54.7 30.7L54.7043 30.7012L55.2643 28.7812ZM71.6706 41.5742L69.8705 42.4458L69.876 42.4573L69.8817 42.4686L71.6706 41.5742ZM71.6706 62.7168L69.8573 61.873L69.8538 61.8804L69.8504 61.8878L71.6706 62.7168ZM64.9811 71.3105L66.243 72.8623L66.2531 72.8539L64.9811 71.3105ZM53.9459 77.0234L54.5401 78.9332L54.5529 78.9291L53.9459 77.0234ZM23.2331 76.9258L22.6449 78.8373L23.2331 76.9258ZM3.50649 58.7129L1.64248 59.4378L1.64553 59.4456L1.64864 59.4534L3.50649 58.7129ZM16.153 49.1426L14.7388 47.7284L14.0286 48.4385L14.1741 49.4322L16.153 49.1426ZM23.1842 61.252L22.0373 62.8904L22.0465 62.8968L23.1842 61.252ZM53.3112 61.6426L54.4279 63.3018L54.4388 63.2944L54.4496 63.287L53.3112 61.6426ZM54.2389 44.1621L53.0626 45.7796L53.0833 45.7946L53.1043 45.8091L54.2389 44.1621ZM48.6725 41.7207L48.1486 43.6509L48.1615 43.6544L48.1744 43.6577L48.6725 41.7207ZM20.4499 45.8223L19.4257 44.1044L19.4184 44.1088L19.411 44.1132L20.4499 45.8223ZM2.77212 41.9648C2.77212 35.2233 3.76965 29.4467 5.70605 24.5904L1.99053 23.1089C-0.174633 28.5389 -1.22788 34.8392 -1.22788 41.9648H2.77212ZM5.70363 24.5964C7.69408 19.6514 10.3755 15.6032 13.7253 12.4057L10.9634 9.51227C7.15176 13.1507 4.16917 17.6963 1.99295 23.1028L5.70363 24.5964ZM13.7188 12.4119C17.1179 9.19654 21.1181 6.78615 25.7436 5.18264L24.4334 1.4033C19.2933 3.18521 14.7974 5.88549 10.97 9.50605L13.7188 12.4119ZM25.7436 5.18264C30.3965 3.56965 35.4464 2.75391 40.9088 2.75391V-1.24609C35.0431 -1.24609 29.5462 -0.369125 24.4334 1.4033L25.7436 5.18264ZM40.9088 2.75391C43.212 2.75391 45.55 2.8801 47.9233 3.13325L48.3475 -0.844187C45.838 -1.11187 43.3583 -1.24609 40.9088 -1.24609V2.75391ZM47.952 3.1361C50.3454 3.35655 52.6887 3.71843 54.9826 4.2212L55.839 0.313953C53.3803 -0.224945 50.8733 -0.611755 48.3188 -0.847038L47.952 3.1361ZM54.9826 4.2212C57.2641 4.72126 59.4633 5.37663 61.5813 6.18646L63.0098 2.45026C60.7008 1.56738 58.3101 0.85556 55.839 0.313953L54.9826 4.2212ZM61.6143 6.19874C63.7507 6.97281 65.7195 7.89703 67.5252 8.96816L69.566 5.52794C67.5304 4.32042 65.3326 3.29152 62.9769 2.43798L61.6143 6.19874ZM66.8211 6.23495L59.9364 17.9537L63.3852 19.9799L70.27 8.26114L66.8211 6.23495ZM62.6488 17.2279C61.1023 16.3492 59.4565 15.6147 57.7148 15.0225L56.4271 18.8096C57.9406 19.3241 59.3547 19.9568 60.6728 20.7057L62.6488 17.2279ZM57.7606 15.0387C56.0585 14.4134 54.2915 13.9288 52.4613 13.5835L51.7197 17.5142C53.34 17.8199 54.8933 18.2467 56.3813 18.7934L57.7606 15.0387ZM52.4969 13.5906C50.6982 13.2172 48.8825 12.9458 47.0503 12.7761L46.6815 16.7591C48.3648 16.9149 50.0322 17.1643 51.684 17.5071L52.4969 13.5906ZM47.0503 12.7761C45.2338 12.6079 43.4469 12.5234 41.6901 12.5234V16.5234C43.3187 16.5234 44.9824 16.6017 46.6815 16.7591L47.0503 12.7761ZM41.6901 12.5234C37.743 12.5234 34.1156 13.0338 30.8281 14.083L32.0443 17.8936C34.8766 16.9897 38.0851 16.5234 41.6901 16.5234V12.5234ZM30.8222 14.0849C27.588 15.1281 24.7431 16.6214 22.3171 18.5836L24.8326 21.6937C26.8337 20.0752 29.2297 18.8015 32.0502 17.8917L30.8222 14.0849ZM22.3171 18.5836C19.8953 20.5424 17.9484 22.8999 16.4872 25.644L20.0179 27.524C21.226 25.2551 22.8273 23.3156 24.8326 21.6937L22.3171 18.5836ZM16.4827 25.6525C15.0531 28.3689 14.1727 31.3663 13.8226 34.6221L17.7997 35.0498C18.1007 32.2508 18.8479 29.747 20.0224 27.5155L16.4827 25.6525ZM17.0495 36.4065C18.6191 35.1689 20.3628 34.0908 22.2863 33.1749L20.5665 29.5634C18.3885 30.6006 16.3887 31.8337 14.5729 33.2654L17.0495 36.4065ZM22.2863 33.1749C24.2249 32.2517 26.2768 31.4951 28.4445 30.9067L27.3967 27.0464C25.0071 27.695 22.7295 28.5334 20.5665 29.5634L22.2863 33.1749ZM28.4628 30.9016C30.6744 30.2787 32.9338 29.8267 35.2421 29.5459L34.7592 25.5752C32.2497 25.8804 29.7891 26.3724 27.3783 27.0515L28.4628 30.9016ZM35.265 29.543C37.6195 29.2291 39.9726 29.0723 42.3249 29.0723V25.0723C39.7943 25.0723 37.2646 25.241 34.7363 25.5781L35.265 29.543ZM42.3249 29.0723C46.9193 29.0723 51.0386 29.6231 54.7 30.7L55.8286 26.8625C51.7426 25.6608 47.2356 25.0723 42.3249 25.0723V29.0723ZM54.7043 30.7012C58.4074 31.7813 61.5087 33.3213 64.0475 35.2926L66.5007 32.1332C63.5056 29.8076 59.9337 28.0598 55.8243 26.8613L54.7043 30.7012ZM64.0475 35.2926C66.5762 37.2561 68.5099 39.636 69.8705 42.4458L73.4706 40.7026C71.8364 37.3276 69.5058 34.4666 66.5007 32.1332L64.0475 35.2926ZM69.8817 42.4686C71.2543 45.2138 71.9655 48.3834 71.9655 52.0234H75.9655C75.9655 47.8509 75.1467 44.0544 73.4594 40.6798L69.8817 42.4686ZM71.9655 52.0234C71.9655 55.5907 71.257 58.8651 69.8573 61.873L73.4838 63.5606C75.144 59.993 75.9655 56.1385 75.9655 52.0234H71.9655ZM69.8504 61.8878C68.4869 64.8817 66.4517 67.5068 63.7091 69.7672L66.2531 72.8539C69.435 70.2315 71.8594 67.1274 73.4907 63.5458L69.8504 61.8878ZM63.7193 69.7588C60.987 71.9807 57.5433 73.7786 53.339 75.1178L54.5529 78.9291C59.1377 77.4688 63.0507 75.4581 66.2429 72.8623L63.7193 69.7588ZM53.3518 75.1137C49.1919 76.4079 44.3052 77.0742 38.6627 77.0742V81.0742C44.6088 81.0742 49.9109 80.3733 54.5401 78.9332L53.3518 75.1137ZM38.6627 77.0742C33.2001 77.0742 28.2586 76.3796 23.8212 75.0142L22.6449 78.8373C27.5175 80.3366 32.8623 81.0742 38.6627 81.0742V77.0742ZM23.8212 75.0142C19.4242 73.6613 15.7021 71.5707 12.6177 68.7584L9.92265 71.7142C13.4788 74.9566 17.732 77.3257 22.6449 78.8373L23.8212 75.0142ZM12.6177 68.7584C9.54575 65.9575 7.12075 62.3788 5.36434 57.9724L1.64864 59.4534C3.60318 64.3569 6.35396 68.4604 9.92265 71.7142L12.6177 68.7584ZM5.3705 57.988C3.65921 53.5875 2.77212 48.2628 2.77212 41.9648H-1.22788C-1.22788 48.6226 -0.292065 54.4632 1.64248 59.4378L5.3705 57.988ZM14.1741 49.4322C15.0235 55.2369 17.6184 59.7972 22.0373 62.8904L24.3312 59.6135C20.9375 57.238 18.8449 53.7254 18.1319 48.853L14.1741 49.4322ZM22.0465 62.8968C26.3828 65.8961 31.9454 67.3047 38.5651 67.3047V63.3047C32.4895 63.3047 27.7981 62.0114 24.3219 59.6071L22.0465 62.8968ZM38.5651 67.3047C41.8866 67.3047 44.8951 66.9662 47.5702 66.2623L46.5522 62.394C44.2793 62.9921 41.6237 63.3047 38.5651 63.3047V67.3047ZM47.5702 66.2623C50.2081 65.5681 52.5091 64.5932 54.4279 63.3018L52.1944 59.9834C50.7278 60.9706 48.8622 61.7861 46.5522 62.394L47.5702 66.2623ZM54.4496 63.287C56.3631 61.9623 57.8737 60.3567 58.9203 58.4574L55.4169 56.527C54.7056 57.8178 53.6447 58.9791 52.1728 59.9982L54.4496 63.287ZM58.9203 58.4574C59.9682 56.5556 60.487 54.4803 60.487 52.2676H56.487C56.487 53.8309 56.1268 55.2386 55.4169 56.527L58.9203 58.4574ZM60.487 52.2676C60.487 50.3759 60.079 48.5775 59.2587 46.8977L55.6644 48.6531C56.2113 49.7728 56.487 50.9692 56.487 52.2676H60.487ZM59.2587 46.8977C58.4038 45.1472 57.0809 43.6913 55.3735 42.5151L53.1043 45.8091C54.3266 46.6511 55.1522 47.6041 55.6644 48.6531L59.2587 46.8977ZM55.4153 42.5446C53.7241 41.3147 51.6177 40.413 49.1706 39.7837L48.1744 43.6577C50.2846 44.2003 51.8891 44.9262 53.0626 45.7796L55.4153 42.5446ZM49.1964 39.7905C46.6977 39.1123 43.7606 38.793 40.4206 38.793V42.793C43.5258 42.793 46.09 43.0921 48.1486 43.6509L49.1964 39.7905ZM40.4206 38.793C37.6146 38.793 34.9427 39.0127 32.4085 39.4579L33.1006 43.3976C35.384 42.9964 37.8228 42.793 40.4206 42.793V38.793ZM32.4085 39.4579C29.8975 39.899 27.5526 40.5134 25.3792 41.3068L26.751 45.0643C28.6791 44.3603 30.7939 43.8028 33.1006 43.3976L32.4085 39.4579ZM25.3792 41.3068C23.2233 42.0939 21.2367 43.0248 19.4257 44.1044L21.474 47.5402C23.0484 46.6015 24.8053 45.7746 26.751 45.0643L25.3792 41.3068ZM19.411 44.1132C17.6331 45.1939 16.0706 46.3965 14.7388 47.7284L17.5672 50.5568C18.6442 49.4798 19.9463 48.4689 21.4887 47.5313L19.411 44.1132Z" fill="white" mask="url(#path-1-outside-1_56_390)"/>
</svg>
