<svg width="105" height="153" viewBox="0 0 105 153" fill="none" xmlns="http://www.w3.org/2000/svg">
<mask id="path-1-inside-1_50_16" fill="white">
<path d="M5.91797 125.852H40.5859V30.832C36.0286 31.8737 31.6341 33.2409 27.4023 34.9336C23.2357 36.6263 19.4271 38.6771 15.9766 41.0859L0.742188 19.3086C6.34115 15.793 12.0378 12.8307 17.832 10.4219C23.6914 7.94792 29.5833 5.99479 35.5078 4.5625C41.4974 3.0651 47.487 1.99089 53.4766 1.33984C59.5312 0.688802 65.5534 0.363281 71.543 0.363281L71.4453 0.558594H71.543V125.852H104.648V153H5.91797V125.852Z"/>
</mask>
<path d="M5.91797 125.852H40.5859V30.832C36.0286 31.8737 31.6341 33.2409 27.4023 34.9336C23.2357 36.6263 19.4271 38.6771 15.9766 41.0859L0.742188 19.3086C6.34115 15.793 12.0378 12.8307 17.832 10.4219C23.6914 7.94792 29.5833 5.99479 35.5078 4.5625C41.4974 3.0651 47.487 1.99089 53.4766 1.33984C59.5312 0.688802 65.5534 0.363281 71.543 0.363281L71.4453 0.558594H71.543V125.852H104.648V153H5.91797V125.852Z" fill="white"/>
<path d="M5.91797 125.852V123.852H3.91797V125.852H5.91797ZM40.5859 125.852V127.852H42.5859V125.852H40.5859ZM40.5859 30.832H42.5859V28.3233L40.1403 28.8823L40.5859 30.832ZM27.4023 34.9336L26.6596 33.0766L26.6496 33.0807L27.4023 34.9336ZM15.9766 41.0859L14.3378 42.2324L15.4831 43.8696L17.1214 42.7259L15.9766 41.0859ZM0.742188 19.3086L-0.321349 17.6148L-2.10154 18.7326L-0.896622 20.455L0.742188 19.3086ZM17.832 10.4219L18.5998 12.2687L18.61 12.2644L17.832 10.4219ZM35.5078 4.5625L35.9778 6.5065L35.9853 6.50467L35.9929 6.50279L35.5078 4.5625ZM53.4766 1.33984L53.2627 -0.648695L53.2604 -0.648445L53.4766 1.33984ZM71.543 0.363281L73.3318 1.25771L74.779 -1.63672H71.543V0.363281ZM71.4453 0.558594L69.6565 -0.335833L68.2092 2.55859H71.4453V0.558594ZM71.543 0.558594H73.543V-1.44141H71.543V0.558594ZM71.543 125.852H69.543V127.852H71.543V125.852ZM104.648 125.852H106.648V123.852H104.648V125.852ZM104.648 153V155H106.648V153H104.648ZM5.91797 153H3.91797V155H5.91797V153ZM5.91797 127.852H40.5859V123.852H5.91797V127.852ZM42.5859 125.852V30.832H38.5859V125.852H42.5859ZM40.1403 28.8823C35.4843 29.9465 30.9903 31.3444 26.6596 33.0766L28.1451 36.7905C32.278 35.1374 36.573 33.8009 41.0316 32.7817L40.1403 28.8823ZM26.6496 33.0807C22.3541 34.8257 18.4126 36.9461 14.8317 39.446L17.1214 42.7259C20.4415 40.408 24.1172 38.4269 28.1551 36.7865L26.6496 33.0807ZM17.6154 39.9395L2.381 18.1622L-0.896622 20.455L14.3378 42.2324L17.6154 39.9395ZM1.80572 21.0024C7.31552 17.5427 12.9135 14.6326 18.5998 12.2686L17.0643 8.57511C11.162 11.0289 5.36678 14.0432 -0.321349 17.6148L1.80572 21.0024ZM18.61 12.2644C24.3739 9.83071 30.163 7.91227 35.9778 6.5065L35.0378 2.6185C29.0037 4.07731 23.0089 6.06513 17.0541 8.57938L18.61 12.2644ZM35.9929 6.50279C41.8962 5.02696 47.7959 3.96908 53.6927 3.32813L53.2604 -0.648445C47.178 0.0126888 41.0986 1.10325 35.0227 2.62221L35.9929 6.50279ZM53.6904 3.32838C59.6752 2.68485 65.626 2.36328 71.543 2.36328V-1.63672C65.4808 -1.63672 59.3873 -1.30724 53.2627 -0.648694L53.6904 3.32838ZM69.7541 -0.531146L69.6565 -0.335833L73.2342 1.45302L73.3318 1.25771L69.7541 -0.531146ZM71.4453 2.55859H71.543V-1.44141H71.4453V2.55859ZM69.543 0.558594V125.852H73.543V0.558594H69.543ZM71.543 127.852H104.648V123.852H71.543V127.852ZM102.648 125.852V153H106.648V125.852H102.648ZM104.648 151H5.91797V155H104.648V151ZM7.91797 153V125.852H3.91797V153H7.91797Z" fill="white" mask="url(#path-1-inside-1_50_16)"/>
</svg>
