<svg width="136" height="155" viewBox="0 0 136 155" fill="none" xmlns="http://www.w3.org/2000/svg">
<mask id="path-1-inside-1_50_17" fill="white">
<path d="M4.48438 128.438L58.293 91.5234C66.3659 85.9896 72.974 81.1719 78.1172 77.0703C83.2604 72.9688 87.2969 69.3229 90.2266 66.1328C93.1562 62.8776 95.1745 59.9479 96.2812 57.3438C97.388 54.7396 97.9414 52.1354 97.9414 49.5312C97.9414 46.5365 97.3229 43.737 96.0859 41.1328C94.849 38.5286 92.8958 36.25 90.2266 34.2969C87.6224 32.3438 84.237 30.8138 80.0703 29.707C75.9688 28.6003 71.0534 28.0469 65.3242 28.0469C56.9909 28.0469 48.6901 29.2188 40.4219 31.5625C32.1536 33.9062 23.7227 37.6497 15.1289 42.793L0.871094 19.3555C10.4414 13.431 20.793 8.80859 31.9258 5.48828C43.1237 2.16797 54.875 0.507812 67.1797 0.507812C77.9219 0.507812 87.2318 1.8099 95.1094 4.41406C103.052 6.95312 109.595 10.4362 114.738 14.8633C119.947 19.2904 123.82 24.4336 126.359 30.293C128.898 36.1523 130.168 42.3698 130.168 48.9453C130.168 54.0234 129.322 58.8737 127.629 63.4961C125.936 68.1185 122.974 72.9036 118.742 77.8516C114.51 82.7995 108.781 88.138 101.555 93.8672C94.3932 99.5312 85.3438 105.977 74.4062 113.203L52.1406 127.852H135.734V155H4.48438V128.438Z"/>
</mask>
<path d="M4.48438 128.438L58.293 91.5234C66.3659 85.9896 72.974 81.1719 78.1172 77.0703C83.2604 72.9688 87.2969 69.3229 90.2266 66.1328C93.1562 62.8776 95.1745 59.9479 96.2812 57.3438C97.388 54.7396 97.9414 52.1354 97.9414 49.5312C97.9414 46.5365 97.3229 43.737 96.0859 41.1328C94.849 38.5286 92.8958 36.25 90.2266 34.2969C87.6224 32.3438 84.237 30.8138 80.0703 29.707C75.9688 28.6003 71.0534 28.0469 65.3242 28.0469C56.9909 28.0469 48.6901 29.2188 40.4219 31.5625C32.1536 33.9062 23.7227 37.6497 15.1289 42.793L0.871094 19.3555C10.4414 13.431 20.793 8.80859 31.9258 5.48828C43.1237 2.16797 54.875 0.507812 67.1797 0.507812C77.9219 0.507812 87.2318 1.8099 95.1094 4.41406C103.052 6.95312 109.595 10.4362 114.738 14.8633C119.947 19.2904 123.82 24.4336 126.359 30.293C128.898 36.1523 130.168 42.3698 130.168 48.9453C130.168 54.0234 129.322 58.8737 127.629 63.4961C125.936 68.1185 122.974 72.9036 118.742 77.8516C114.51 82.7995 108.781 88.138 101.555 93.8672C94.3932 99.5312 85.3438 105.977 74.4062 113.203L52.1406 127.852H135.734V155H4.48438V128.438Z" fill="white"/>
<path d="M4.48438 128.438L3.35297 126.788L2.48438 127.384V128.438H4.48438ZM58.293 91.5234L57.1622 89.8738L57.1616 89.8742L58.293 91.5234ZM78.1172 77.0703L76.8702 75.5066L78.1172 77.0703ZM90.2266 66.1328L91.6996 67.4856L91.7064 67.4782L91.7132 67.4707L90.2266 66.1328ZM96.2812 57.3438L98.1219 58.126L96.2812 57.3438ZM90.2266 34.2969L89.0266 35.8969L89.036 35.904L89.0455 35.9109L90.2266 34.2969ZM80.0703 29.707L79.5493 31.638L79.5569 31.64L80.0703 29.707ZM15.1289 42.793L13.4202 43.8324L14.4522 45.5288L16.156 44.5091L15.1289 42.793ZM0.871094 19.3555L-0.181615 17.6549L-1.86896 18.6995L-0.837578 20.3949L0.871094 19.3555ZM31.9258 5.48828L31.3572 3.5708L31.3542 3.57171L31.9258 5.48828ZM95.1094 4.41406L94.4816 6.31299L94.491 6.31609L94.5004 6.31909L95.1094 4.41406ZM114.738 14.8633L113.434 16.3791L113.443 16.3872L114.738 14.8633ZM101.555 93.8672L102.795 95.4359L102.797 95.4344L101.555 93.8672ZM74.4062 113.203L75.5055 114.874L75.5088 114.872L74.4062 113.203ZM52.1406 127.852L51.0414 126.181L45.4617 129.852H52.1406V127.852ZM135.734 127.852H137.734V125.852H135.734V127.852ZM135.734 155V157H137.734V155H135.734ZM4.48438 155H2.48438V157H4.48438V155ZM5.61578 130.087L59.4244 93.1727L57.1616 89.8742L3.35297 126.788L5.61578 130.087ZM59.4238 93.1731C67.5193 87.6237 74.1699 82.7762 79.3642 78.634L76.8702 75.5066C71.778 79.5675 65.2125 84.3555 57.1622 89.8738L59.4238 93.1731ZM79.3642 78.634C84.5513 74.4974 88.6742 70.78 91.6996 67.4856L88.7535 64.78C85.9195 67.8659 81.9696 71.4401 76.8702 75.5066L79.3642 78.634ZM91.7132 67.4707C94.7189 64.131 96.8948 61.0134 98.1219 58.126L94.4406 56.5615C93.4542 58.8824 91.5936 61.6242 88.74 64.7949L91.7132 67.4707ZM98.1219 58.126C99.3246 55.2961 99.9414 52.4268 99.9414 49.5312H95.9414C95.9414 51.8441 95.4514 54.1831 94.4406 56.5615L98.1219 58.126ZM99.9414 49.5312C99.9414 46.2514 99.2618 43.1575 97.8925 40.2747L94.2794 41.9909C95.384 44.3165 95.9414 46.8215 95.9414 49.5312H99.9414ZM97.8925 40.2747C96.4932 37.3289 94.3051 34.8029 91.4076 32.6828L89.0455 35.9109C91.4866 37.6971 93.2047 39.7284 94.2794 41.9909L97.8925 40.2747ZM91.4266 32.6969C88.5622 30.5486 84.9224 28.9265 80.5838 27.7741L79.5569 31.64C83.5516 32.7011 86.6826 34.1389 89.0266 35.8969L91.4266 32.6969ZM80.5914 27.7761C76.2726 26.6107 71.1725 26.0469 65.3242 26.0469V30.0469C70.9343 30.0469 75.6649 30.5898 79.5493 31.638L80.5914 27.7761ZM65.3242 26.0469C56.8007 26.0469 48.3165 27.2458 39.8764 29.6383L40.9673 33.4867C49.0637 31.1917 57.181 30.0469 65.3242 30.0469V26.0469ZM39.8764 29.6383C31.4141 32.0371 22.8221 35.8579 14.1018 41.0768L16.156 44.5091C24.6232 39.4416 32.8932 35.7754 40.9673 33.4867L39.8764 29.6383ZM16.8376 41.7535L2.57977 18.316L-0.837578 20.3949L13.4202 43.8324L16.8376 41.7535ZM1.9238 21.056C11.3392 15.2274 21.5283 10.6763 32.4974 7.40486L31.3542 3.57171C20.0576 6.94085 9.5436 11.6346 -0.181615 17.6549L1.9238 21.056ZM32.4943 7.40576C43.4981 4.14304 55.0572 2.50781 67.1797 2.50781V-1.49219C54.6928 -1.49219 42.7493 0.192902 31.3572 3.5708L32.4943 7.40576ZM67.1797 2.50781C77.768 2.50781 86.8562 3.79218 94.4816 6.31299L95.7371 2.51513C87.6074 -0.172385 78.0757 -1.49219 67.1797 -1.49219V2.50781ZM94.5004 6.31909C102.244 8.7946 108.535 12.1623 113.434 16.3791L116.043 13.3475C110.656 8.71012 103.86 5.11165 95.7184 2.50903L94.5004 6.31909ZM113.443 16.3872C118.435 20.6302 122.115 25.5294 124.524 31.0882L128.194 29.4978C125.525 23.3378 121.458 17.9506 116.034 13.3394L113.443 16.3872ZM124.524 31.0882C126.951 36.689 128.168 42.635 128.168 48.9453H132.168C132.168 42.1046 130.846 35.6157 128.194 29.4978L124.524 31.0882ZM128.168 48.9453C128.168 53.7963 127.36 58.4132 125.751 62.8084L129.507 64.1838C131.283 59.3342 132.168 54.2505 132.168 48.9453H128.168ZM125.751 62.8084C124.162 67.1477 121.346 71.7297 117.222 76.5516L120.262 79.1515C124.602 74.0776 127.711 69.0892 129.507 64.1838L125.751 62.8084ZM117.222 76.5516C113.101 81.3707 107.476 86.6206 100.312 92.3L102.797 95.4344C110.087 89.6554 115.92 84.2283 120.262 79.1515L117.222 76.5516ZM100.314 92.2985C93.2117 97.9158 84.2123 104.327 73.3037 111.534L75.5088 114.872C86.4752 107.626 95.5747 101.147 102.795 95.4359L100.314 92.2985ZM73.307 111.532L51.0414 126.181L53.2399 129.522L75.5055 114.874L73.307 111.532ZM52.1406 129.852H135.734V125.852H52.1406V129.852ZM133.734 127.852V155H137.734V127.852H133.734ZM135.734 153H4.48438V157H135.734V153ZM6.48438 155V128.438H2.48438V155H6.48438Z" fill="white" mask="url(#path-1-inside-1_50_17)"/>
</svg>
