<svg width="140" height="156" viewBox="0 0 140 156" fill="none" xmlns="http://www.w3.org/2000/svg">
<mask id="path-1-inside-1_50_18" fill="white">
<path d="M15.0508 116.672C22.7331 120.448 30.9362 123.215 39.6602 124.973C48.4492 126.665 57.0104 127.512 65.3438 127.512C72.7656 127.512 79.1784 126.926 84.582 125.754C89.9857 124.517 94.4453 122.857 97.9609 120.773C101.477 118.69 104.081 116.216 105.773 113.352C107.466 110.487 108.312 107.395 108.312 104.074C108.312 99.582 106.783 95.5781 103.723 92.0625C100.663 88.4818 96.0078 85.8125 89.7578 84.0547C83.5729 82.2318 75.7279 81.5156 66.2227 81.9062C56.7826 82.2969 45.6497 84.1523 32.8242 87.4727L32.9219 64.6211L89.9531 27.5117H9.19141V0.363281H131.359V26.9258L81.1641 58.7617C90.3438 58.7617 98.5469 59.9336 105.773 62.2773C113 64.6211 119.087 67.8438 124.035 71.9453C128.983 76.0469 132.759 80.8971 135.363 86.4961C137.967 92.0951 139.27 98.1172 139.27 104.562C139.27 112.18 137.577 119.113 134.191 125.363C130.871 131.548 126.021 136.854 119.641 141.281C113.26 145.643 105.448 149.029 96.2031 151.438C87.0234 153.846 76.6068 155.051 64.9531 155.051C52.5833 155.051 41.1576 153.749 30.6758 151.145C20.194 148.475 10.2331 144.797 0.792969 140.109L15.0508 116.672Z"/>
</mask>
<path d="M15.0508 116.672C22.7331 120.448 30.9362 123.215 39.6602 124.973C48.4492 126.665 57.0104 127.512 65.3438 127.512C72.7656 127.512 79.1784 126.926 84.582 125.754C89.9857 124.517 94.4453 122.857 97.9609 120.773C101.477 118.69 104.081 116.216 105.773 113.352C107.466 110.487 108.312 107.395 108.312 104.074C108.312 99.582 106.783 95.5781 103.723 92.0625C100.663 88.4818 96.0078 85.8125 89.7578 84.0547C83.5729 82.2318 75.7279 81.5156 66.2227 81.9062C56.7826 82.2969 45.6497 84.1523 32.8242 87.4727L32.9219 64.6211L89.9531 27.5117H9.19141V0.363281H131.359V26.9258L81.1641 58.7617C90.3438 58.7617 98.5469 59.9336 105.773 62.2773C113 64.6211 119.087 67.8438 124.035 71.9453C128.983 76.0469 132.759 80.8971 135.363 86.4961C137.967 92.0951 139.27 98.1172 139.27 104.562C139.27 112.18 137.577 119.113 134.191 125.363C130.871 131.548 126.021 136.854 119.641 141.281C113.26 145.643 105.448 149.029 96.2031 151.438C87.0234 153.846 76.6068 155.051 64.9531 155.051C52.5833 155.051 41.1576 153.749 30.6758 151.145C20.194 148.475 10.2331 144.797 0.792969 140.109L15.0508 116.672Z" fill="white"/>
<path d="M15.0508 116.672L15.933 114.877L14.2923 114.071L13.3421 115.632L15.0508 116.672ZM39.6602 124.973L39.2651 126.933L39.2735 126.935L39.2819 126.937L39.6602 124.973ZM84.582 125.754L85.0059 127.708L85.0171 127.706L85.0283 127.703L84.582 125.754ZM97.9609 120.773L96.9413 119.053L97.9609 120.773ZM103.723 92.0625L102.202 93.3618L102.208 93.3687L102.214 93.3755L103.723 92.0625ZM89.7578 84.0547L89.1924 85.9731L89.2043 85.9766L89.2163 85.98L89.7578 84.0547ZM66.2227 81.9062L66.1405 79.9079L66.14 79.908L66.2227 81.9062ZM32.8242 87.4727L30.8242 87.4641L30.8131 90.0592L33.3255 89.4088L32.8242 87.4727ZM32.9219 64.6211L31.8311 62.9447L30.9265 63.5333L30.9219 64.6125L32.9219 64.6211ZM89.9531 27.5117L91.0439 29.1881L96.6939 25.5117H89.9531V27.5117ZM9.19141 27.5117H7.19141V29.5117H9.19141V27.5117ZM9.19141 0.363281V-1.63672H7.19141V0.363281H9.19141ZM131.359 0.363281H133.359V-1.63672H131.359V0.363281ZM131.359 26.9258L132.431 28.6147L133.359 28.0256V26.9258H131.359ZM81.1641 58.7617L80.0929 57.0728L74.2766 60.7617H81.1641V58.7617ZM135.363 86.4961L133.55 87.3396L135.363 86.4961ZM134.191 125.363L132.433 124.411L132.429 124.417L134.191 125.363ZM119.641 141.281L120.769 142.932L120.781 142.924L119.641 141.281ZM96.2031 151.438L95.6988 149.502L95.6955 149.503L96.2031 151.438ZM30.6758 151.145L30.1822 153.083L30.1935 153.086L30.6758 151.145ZM0.792969 140.109L-0.915703 139.07L-2.0482 140.932L-0.0965135 141.901L0.792969 140.109ZM14.1685 118.467C22.0114 122.322 30.379 125.143 39.2651 126.933L40.0552 123.012C31.4934 121.287 23.4547 118.574 15.933 114.877L14.1685 118.467ZM39.2819 126.937C48.1865 128.652 56.8745 129.512 65.3438 129.512V125.512C57.1463 125.512 48.7119 124.679 40.0384 123.009L39.2819 126.937ZM65.3438 129.512C72.8631 129.512 79.4249 128.919 85.0059 127.708L84.1581 123.799C78.9318 124.933 72.6682 125.512 65.3438 125.512V129.512ZM85.0283 127.703C90.5669 126.436 95.2361 124.713 98.9805 122.494L96.9413 119.053C93.6545 121.001 89.4044 122.598 84.1357 123.804L85.0283 127.703ZM98.9805 122.494C102.72 120.278 105.596 117.582 107.495 114.369L104.052 112.334C102.565 114.85 100.233 117.102 96.9413 119.053L98.9805 122.494ZM107.495 114.369C109.37 111.197 110.312 107.753 110.312 104.074H106.312C106.312 107.036 105.563 109.777 104.052 112.334L107.495 114.369ZM110.312 104.074C110.312 99.08 108.595 94.6142 105.231 90.7495L102.214 93.3755C104.97 96.5421 106.312 100.084 106.312 104.074H110.312ZM105.243 90.7632C101.846 86.7874 96.7907 83.9551 90.2993 82.1294L89.2163 85.98C95.225 87.6699 99.4799 90.1761 102.202 93.3618L105.243 90.7632ZM90.3232 82.1363C83.8539 80.2295 75.7706 79.5122 66.1405 79.9079L66.3048 83.9046C75.6851 83.5191 83.2919 84.234 89.1924 85.9731L90.3232 82.1363ZM66.14 79.908C56.5148 80.3062 45.2353 82.1937 32.323 85.5365L33.3255 89.4088C46.0642 86.111 57.0503 84.2875 66.3053 83.9045L66.14 79.908ZM34.8242 87.4812L34.9219 64.6296L30.9219 64.6125L30.8242 87.4641L34.8242 87.4812ZM34.0127 66.2975L91.0439 29.1881L88.8623 25.8354L31.8311 62.9447L34.0127 66.2975ZM89.9531 25.5117H9.19141V29.5117H89.9531V25.5117ZM11.1914 27.5117V0.363281H7.19141V27.5117H11.1914ZM9.19141 2.36328H131.359V-1.63672H9.19141V2.36328ZM129.359 0.363281V26.9258H133.359V0.363281H129.359ZM130.288 25.2368L80.0929 57.0728L82.2353 60.4507L132.431 28.6147L130.288 25.2368ZM81.1641 60.7617C90.1764 60.7617 98.1656 61.9125 105.156 64.1798L106.39 60.3749C98.9281 57.9547 90.5111 56.7617 81.1641 56.7617V60.7617ZM105.156 64.1798C112.185 66.4594 118.038 69.5716 122.759 73.4851L125.312 70.4056C120.137 66.1159 113.815 62.7828 106.39 60.3749L105.156 64.1798ZM122.759 73.4851C127.488 77.4052 131.076 82.0207 133.55 87.3396L137.177 85.6526C134.442 79.7736 130.478 74.6886 125.312 70.4056L122.759 73.4851ZM133.55 87.3396C136.026 92.6627 137.27 98.3955 137.27 104.562H141.27C141.27 97.8389 139.909 91.5274 137.177 85.6526L133.55 87.3396ZM137.27 104.562C137.27 111.872 135.649 118.474 132.433 124.411L135.95 126.316C139.505 119.753 141.27 112.488 141.27 104.562H137.27ZM132.429 124.417C129.274 130.295 124.649 135.372 118.5 139.638L120.781 142.924C127.392 138.337 132.469 132.801 135.954 126.309L132.429 124.417ZM118.512 139.63C112.361 143.836 104.771 147.138 95.6988 149.502L96.7074 153.373C106.125 150.919 114.16 147.451 120.769 142.932L118.512 139.63ZM95.6955 149.503C86.7141 151.86 76.4728 153.051 64.9531 153.051V157.051C76.7408 157.051 87.3328 155.833 96.7108 153.372L95.6955 149.503ZM64.9531 153.051C52.7229 153.051 41.4612 151.763 31.158 149.204L30.1935 153.086C40.8539 155.734 52.4438 157.051 64.9531 157.051V153.051ZM31.1693 149.206C20.8208 146.571 10.9929 142.941 1.68245 138.318L-0.0965135 141.901C9.47329 146.653 19.5673 150.379 30.1822 153.083L31.1693 149.206ZM2.50164 141.149L16.7595 117.711L13.3421 115.632L-0.915703 139.07L2.50164 141.149Z" fill="white" mask="url(#path-1-inside-1_50_18)"/>
</svg>
