<svg width="154" height="153" viewBox="0 0 154 153" fill="none" xmlns="http://www.w3.org/2000/svg">
<mask id="path-1-inside-1_50_19" fill="white">
<path d="M0.652344 93.2344L89.9102 0.363281H120.867V93.2344H153.777V120.383H120.867V153H89.9102V120.383H0.457031L0.652344 93.2344ZM89.9102 93.2344V39.5234L37.7617 93.2344H89.9102Z"/>
</mask>
<path d="M0.652344 93.2344L89.9102 0.363281H120.867V93.2344H153.777V120.383H120.867V153H89.9102V120.383H0.457031L0.652344 93.2344ZM89.9102 93.2344V39.5234L37.7617 93.2344H89.9102Z" fill="white"/>
<path d="M0.652344 93.2344L-0.789643 91.8485L-1.34187 92.4231L-1.3476 93.22L0.652344 93.2344ZM89.9102 0.363281V-1.63672H89.0584L88.4682 -1.0226L89.9102 0.363281ZM120.867 0.363281H122.867V-1.63672H120.867V0.363281ZM120.867 93.2344H118.867V95.2344H120.867V93.2344ZM153.777 93.2344H155.777V91.2344H153.777V93.2344ZM153.777 120.383V122.383H155.777V120.383H153.777ZM120.867 120.383V118.383H118.867V120.383H120.867ZM120.867 153V155H122.867V153H120.867ZM89.9102 153H87.9102V155H89.9102V153ZM89.9102 120.383H91.9102V118.383H89.9102V120.383ZM0.457031 120.383L-1.54292 120.368L-1.55741 122.383H0.457031V120.383ZM89.9102 93.2344V95.2344H91.9102V93.2344H89.9102ZM89.9102 39.5234H91.9102V34.5924L88.4752 38.1302L89.9102 39.5234ZM37.7617 93.2344L36.3268 91.8412L33.0323 95.2344H37.7617V93.2344ZM2.09433 94.6203L91.3521 1.74917L88.4682 -1.0226L-0.789643 91.8485L2.09433 94.6203ZM89.9102 2.36328H120.867V-1.63672H89.9102V2.36328ZM118.867 0.363281V93.2344H122.867V0.363281H118.867ZM120.867 95.2344H153.777V91.2344H120.867V95.2344ZM151.777 93.2344V120.383H155.777V93.2344H151.777ZM153.777 118.383H120.867V122.383H153.777V118.383ZM118.867 120.383V153H122.867V120.383H118.867ZM120.867 151H89.9102V155H120.867V151ZM91.9102 153V120.383H87.9102V153H91.9102ZM89.9102 118.383H0.457031V122.383H89.9102V118.383ZM2.45698 120.397L2.65229 93.2488L-1.3476 93.22L-1.54292 120.368L2.45698 120.397ZM91.9102 93.2344V39.5234H87.9102V93.2344H91.9102ZM88.4752 38.1302L36.3268 91.8412L39.1967 94.6276L91.3451 40.9166L88.4752 38.1302ZM37.7617 95.2344H89.9102V91.2344H37.7617V95.2344Z" fill="white" mask="url(#path-1-inside-1_50_19)"/>
</svg>
