<svg width="144" height="156" viewBox="0 0 144 156" fill="none" xmlns="http://www.w3.org/2000/svg">
<mask id="path-1-inside-1_50_20" fill="white">
<path d="M14.8789 116.672C18.5898 118.56 22.5938 120.188 26.8906 121.555C31.2526 122.857 35.7122 123.964 40.2695 124.875C44.8919 125.786 49.5143 126.47 54.1367 126.926C58.8242 127.316 63.3815 127.512 67.8086 127.512C75.6211 127.512 82.3594 126.958 88.0234 125.852C93.7526 124.68 98.4401 123.052 102.086 120.969C105.797 118.885 108.531 116.411 110.289 113.547C112.112 110.617 113.023 107.395 113.023 103.879C113.023 100.298 112.079 97.0104 110.191 94.0156C108.368 91.0208 105.602 88.4492 101.891 86.3008C98.2448 84.1523 93.6224 82.4922 88.0234 81.3203C82.4896 80.0833 76.0117 79.4648 68.5898 79.4648C65.2695 79.4648 61.526 79.6276 57.3594 79.9531C53.1927 80.2135 48.7656 80.6693 44.0781 81.3203C39.3906 81.9714 34.5078 82.8828 29.4297 84.0547C24.3516 85.1615 19.2083 86.5286 14 88.1562V0.363281H131.09V27.8047H42.6133V57.3945C47.4961 56.2878 52.6068 55.3763 57.9453 54.6602C63.2839 53.8789 69.2409 53.4883 75.8164 53.4883C86.5586 53.4883 96.1615 54.6602 104.625 57.0039C113.089 59.3477 120.217 62.7005 126.012 67.0625C131.871 71.4245 136.331 76.6979 139.391 82.8828C142.451 89.0026 143.98 95.8711 143.98 103.488C143.98 111.366 142.32 118.495 139 124.875C135.745 131.19 130.895 136.594 124.449 141.086C118.069 145.578 110.191 149.029 100.816 151.438C91.5065 153.846 80.7969 155.051 68.6875 155.051C62.4375 155.051 56.2201 154.693 50.0352 153.977C43.9154 153.326 37.9583 152.382 32.1641 151.145C26.3698 149.842 20.8034 148.28 15.4648 146.457C10.1914 144.569 5.24349 142.453 0.621094 140.109L14.8789 116.672Z"/>
</mask>
<path d="M14.8789 116.672C18.5898 118.56 22.5938 120.188 26.8906 121.555C31.2526 122.857 35.7122 123.964 40.2695 124.875C44.8919 125.786 49.5143 126.47 54.1367 126.926C58.8242 127.316 63.3815 127.512 67.8086 127.512C75.6211 127.512 82.3594 126.958 88.0234 125.852C93.7526 124.68 98.4401 123.052 102.086 120.969C105.797 118.885 108.531 116.411 110.289 113.547C112.112 110.617 113.023 107.395 113.023 103.879C113.023 100.298 112.079 97.0104 110.191 94.0156C108.368 91.0208 105.602 88.4492 101.891 86.3008C98.2448 84.1523 93.6224 82.4922 88.0234 81.3203C82.4896 80.0833 76.0117 79.4648 68.5898 79.4648C65.2695 79.4648 61.526 79.6276 57.3594 79.9531C53.1927 80.2135 48.7656 80.6693 44.0781 81.3203C39.3906 81.9714 34.5078 82.8828 29.4297 84.0547C24.3516 85.1615 19.2083 86.5286 14 88.1562V0.363281H131.09V27.8047H42.6133V57.3945C47.4961 56.2878 52.6068 55.3763 57.9453 54.6602C63.2839 53.8789 69.2409 53.4883 75.8164 53.4883C86.5586 53.4883 96.1615 54.6602 104.625 57.0039C113.089 59.3477 120.217 62.7005 126.012 67.0625C131.871 71.4245 136.331 76.6979 139.391 82.8828C142.451 89.0026 143.98 95.8711 143.98 103.488C143.98 111.366 142.32 118.495 139 124.875C135.745 131.19 130.895 136.594 124.449 141.086C118.069 145.578 110.191 149.029 100.816 151.438C91.5065 153.846 80.7969 155.051 68.6875 155.051C62.4375 155.051 56.2201 154.693 50.0352 153.977C43.9154 153.326 37.9583 152.382 32.1641 151.145C26.3698 149.842 20.8034 148.28 15.4648 146.457C10.1914 144.569 5.24349 142.453 0.621094 140.109L14.8789 116.672Z" fill="white"/>
<path d="M14.8789 116.672L15.7858 114.889L14.1336 114.049L13.1702 115.632L14.8789 116.672ZM26.8906 121.555L26.2842 123.461L26.3013 123.466L26.3186 123.471L26.8906 121.555ZM40.2695 124.875L39.8773 126.836L39.8826 126.837L40.2695 124.875ZM54.1367 126.926L53.9405 128.916L53.9555 128.918L53.9706 128.919L54.1367 126.926ZM88.0234 125.852L88.407 127.814L88.4156 127.813L88.4242 127.811L88.0234 125.852ZM102.086 120.969L101.107 119.225L101.1 119.228L101.094 119.232L102.086 120.969ZM110.289 113.547L108.591 112.49L108.584 112.501L110.289 113.547ZM110.191 94.0156L108.483 95.0555L108.491 95.0689L108.5 95.0822L110.191 94.0156ZM101.891 86.3008L100.875 88.0239L100.882 88.0278L100.889 88.0316L101.891 86.3008ZM88.0234 81.3203L87.5871 83.2721L87.6004 83.2751L87.6137 83.2779L88.0234 81.3203ZM57.3594 79.9531L57.4841 81.9492L57.4996 81.9483L57.5152 81.947L57.3594 79.9531ZM29.4297 84.0547L29.8556 86.0088L29.8675 86.0062L29.8794 86.0035L29.4297 84.0547ZM14 88.1562H12V90.8766L14.5965 90.0652L14 88.1562ZM14 0.363281V-1.63672H12V0.363281H14ZM131.09 0.363281H133.09V-1.63672H131.09V0.363281ZM131.09 27.8047V29.8047H133.09V27.8047H131.09ZM42.6133 27.8047V25.8047H40.6133V27.8047H42.6133ZM42.6133 57.3945H40.6133V59.8986L43.0554 59.3451L42.6133 57.3945ZM57.9453 54.6602L58.2112 56.6424L58.2231 56.6408L58.2349 56.6391L57.9453 54.6602ZM126.012 67.0625L124.809 68.6604L124.817 68.6668L126.012 67.0625ZM139.391 82.8828L137.598 83.7697L137.602 83.7772L139.391 82.8828ZM139 124.875L137.226 123.952L137.222 123.959L139 124.875ZM124.449 141.086L123.306 139.445L123.298 139.451L124.449 141.086ZM100.816 151.438L100.319 149.5L100.315 149.501L100.816 151.438ZM50.0352 153.977L50.2652 151.99L50.256 151.989L50.2467 151.988L50.0352 153.977ZM32.1641 151.145L31.7256 153.096L31.736 153.098L31.7465 153.1L32.1641 151.145ZM15.4648 146.457L14.7907 148.34L14.8046 148.345L14.8186 148.35L15.4648 146.457ZM0.621094 140.109L-1.08758 139.07L-2.2106 140.916L-0.283369 141.893L0.621094 140.109ZM13.972 118.454C17.7872 120.395 21.8924 122.063 26.2842 123.461L27.497 119.649C23.2951 118.312 19.3925 116.724 15.7858 114.889L13.972 118.454ZM26.3186 123.471C30.741 124.791 35.2607 125.913 39.8773 126.836L40.6618 122.914C36.1638 122.014 31.7642 120.922 27.4627 119.638L26.3186 123.471ZM39.8826 126.837C44.5672 127.761 49.2532 128.454 53.9405 128.916L54.333 124.935C49.7754 124.486 45.2167 123.812 40.6564 122.913L39.8826 126.837ZM53.9706 128.919C58.71 129.314 63.3228 129.512 67.8086 129.512V125.512C63.4403 125.512 58.9385 125.319 54.3028 124.933L53.9706 128.919ZM67.8086 129.512C75.708 129.512 82.5812 128.953 88.407 127.814L87.6399 123.889C82.1375 124.964 75.5342 125.512 67.8086 125.512V129.512ZM88.4242 127.811C94.286 126.612 99.1918 124.926 103.078 122.705L101.094 119.232C97.6884 121.178 93.2192 122.747 87.6226 123.892L88.4242 127.811ZM103.065 122.713C106.996 120.506 110.016 117.816 111.994 114.593L108.584 112.501C107.046 115.007 104.598 117.265 101.107 119.225L103.065 122.713ZM111.987 114.603C114.011 111.35 115.023 107.761 115.023 103.879H111.023C111.023 107.028 110.213 109.884 108.591 112.49L111.987 114.603ZM115.023 103.879C115.023 99.9253 113.975 96.267 111.883 92.949L108.5 95.0822C110.184 97.7538 111.023 100.671 111.023 103.879H115.023ZM111.9 92.9757C109.868 89.6381 106.829 86.849 102.893 84.5699L100.889 88.0316C104.374 90.0495 106.869 92.4036 108.483 95.0555L111.9 92.9757ZM102.906 84.5777C99.0194 82.2874 94.1755 80.5646 88.4332 79.3627L87.6137 83.2779C93.0693 84.4198 97.4702 86.0173 100.875 88.0239L102.906 84.5777ZM88.4597 79.3685C82.7466 78.0914 76.1162 77.4648 68.5898 77.4648V81.4648C75.9072 81.4648 82.2326 82.0752 87.5871 83.2721L88.4597 79.3685ZM68.5898 77.4648C65.2063 77.4648 61.4095 77.6306 57.2036 77.9592L57.5152 81.947C61.6426 81.6246 65.3328 81.4648 68.5898 81.4648V77.4648ZM57.2346 77.957C53.0115 78.221 48.534 78.6822 43.803 79.3393L44.3533 83.3013C48.9973 82.6563 53.3739 82.2061 57.4841 81.9492L57.2346 77.957ZM43.803 79.3393C39.0513 79.9993 34.1101 80.922 28.98 82.1059L29.8794 86.0035C34.9055 84.8436 39.7299 83.9434 44.3533 83.3013L43.803 79.3393ZM29.0038 82.1006C23.8654 83.2205 18.6652 84.603 13.4035 86.2473L14.5965 90.0652C19.7515 88.4543 24.8378 87.1024 29.8556 86.0088L29.0038 82.1006ZM16 88.1562V0.363281H12V88.1562H16ZM14 2.36328H131.09V-1.63672H14V2.36328ZM129.09 0.363281V27.8047H133.09V0.363281H129.09ZM131.09 25.8047H42.6133V29.8047H131.09V25.8047ZM40.6133 27.8047V57.3945H44.6133V27.8047H40.6133ZM43.0554 59.3451C47.8758 58.2524 52.9275 57.3512 58.2112 56.6424L57.6794 52.6779C52.2861 53.4014 47.1164 54.3231 42.1712 55.444L43.0554 59.3451ZM58.2349 56.6391C63.4595 55.8745 69.3177 55.4883 75.8164 55.4883V51.4883C69.1641 51.4883 63.1082 51.8833 57.6557 52.6812L58.2349 56.6391ZM75.8164 55.4883C86.4168 55.4883 95.8351 56.6451 104.091 58.9314L105.159 55.0764C96.4878 52.6753 86.7004 51.4883 75.8164 51.4883V55.4883ZM104.091 58.9314C112.363 61.2219 119.252 64.4774 124.809 68.6603L127.215 65.4647C121.183 60.9237 113.814 57.4734 105.159 55.0764L104.091 58.9314ZM124.817 68.6668C130.439 72.8516 134.686 77.8844 137.598 83.7697L141.183 81.9959C137.975 75.5115 133.303 69.9974 127.206 65.4582L124.817 68.6668ZM137.602 83.7772C140.508 89.5891 141.98 96.146 141.98 103.488H145.98C145.98 95.5962 144.393 88.4161 141.179 81.9884L137.602 83.7772ZM141.98 103.488C141.98 111.076 140.384 117.883 137.226 123.952L140.774 125.798C144.257 119.106 145.98 111.656 145.98 103.488H141.98ZM137.222 123.959C134.132 129.955 129.513 135.119 123.306 139.445L125.593 142.727C132.277 138.068 137.358 132.426 140.778 125.791L137.222 123.959ZM123.298 139.451C117.157 143.775 109.514 147.138 100.319 149.5L101.314 153.375C110.869 150.919 118.981 147.382 125.601 142.721L123.298 139.451ZM100.315 149.501C91.205 151.859 80.6694 153.051 68.6875 153.051V157.051C80.9244 157.051 91.808 155.834 101.317 153.374L100.315 149.501ZM68.6875 153.051C62.5141 153.051 56.3734 152.697 50.2652 151.99L49.8051 155.963C56.0667 156.688 62.3609 157.051 68.6875 157.051V153.051ZM50.2467 151.988C44.1935 151.344 38.3053 150.411 32.5816 149.189L31.7465 153.1C37.6114 154.353 43.6373 155.307 49.8236 155.965L50.2467 151.988ZM32.6026 149.193C26.8749 147.906 21.3781 146.363 16.1111 144.564L14.8186 148.35C20.2287 150.197 25.8647 151.779 31.7256 153.096L32.6026 149.193ZM16.139 144.574C10.9381 142.712 6.06763 140.629 1.52556 138.326L-0.283369 141.893C4.41935 144.278 9.44474 146.426 14.7907 148.34L16.139 144.574ZM2.32977 141.149L16.5876 117.711L13.1702 115.632L-1.08758 139.07L2.32977 141.149Z" fill="white" mask="url(#path-1-inside-1_50_20)"/>
</svg>
