<svg width="148" height="158" viewBox="0 0 148 158" fill="none" xmlns="http://www.w3.org/2000/svg">
<mask id="path-1-inside-1_50_21" fill="white">
<path d="M0.945312 82.9297C0.945312 69.0625 2.99609 56.9857 7.09766 46.6992C11.2643 36.3477 16.9284 27.7539 24.0898 20.918C31.3164 14.082 39.8125 8.97135 49.5781 5.58594C59.3438 2.20052 69.8906 0.507812 81.2188 0.507812C85.9714 0.507812 90.7891 0.768229 95.6719 1.28906C100.62 1.74479 105.47 2.49349 110.223 3.53516C114.975 4.57682 119.565 5.94401 123.992 7.63672C128.484 9.26432 132.651 11.2174 136.492 13.4961L122.723 36.9336C119.858 35.306 116.798 33.9388 113.543 32.832C110.353 31.6602 107.033 30.7487 103.582 30.0977C100.132 29.3815 96.6484 28.8607 93.1328 28.5352C89.6172 28.2096 86.1667 28.0469 82.7812 28.0469C75.2292 28.0469 68.3932 29.0234 62.2734 30.9766C56.2188 32.9297 50.9779 35.6966 46.5508 39.2773C42.1237 42.8581 38.5755 47.1549 35.9062 52.168C33.3021 57.1159 31.6745 62.6172 31.0234 68.6719C34.4089 66.0026 38.1523 63.6914 42.2539 61.7383C46.3555 59.7852 50.6849 58.1901 55.2422 56.9531C59.8646 55.651 64.5846 54.707 69.4023 54.1211C74.2852 53.4701 79.168 53.1445 84.0508 53.1445C93.556 53.1445 102.182 54.2839 109.93 56.5625C117.742 58.8411 124.415 62.1289 129.949 66.4258C135.483 70.7227 139.747 75.9635 142.742 82.1484C145.802 88.2682 147.332 95.2344 147.332 103.047C147.332 110.729 145.802 117.858 142.742 124.434C139.747 131.009 135.288 136.738 129.363 141.621C123.439 146.439 116.082 150.247 107.293 153.047C98.5039 155.781 88.3151 157.148 76.7266 157.148C65.4635 157.148 55.1771 155.716 45.8672 152.852C36.5573 149.987 28.582 145.527 21.9414 139.473C15.3008 133.418 10.125 125.736 6.41406 116.426C2.76823 107.051 0.945312 95.8854 0.945312 82.9297ZM31.707 97.2852C33.2695 107.962 37.957 116.035 45.7695 121.504C53.582 126.908 63.8359 129.609 76.5312 129.609C82.9115 129.609 88.5755 128.958 93.5234 127.656C98.4714 126.354 102.638 124.564 106.023 122.285C109.409 119.941 111.98 117.174 113.738 113.984C115.496 110.794 116.375 107.311 116.375 103.535C116.375 100.345 115.691 97.3503 114.324 94.5508C112.957 91.7513 110.809 89.3424 107.879 87.3242C105.014 85.2409 101.303 83.6133 96.7461 82.4414C92.1888 81.2044 86.6875 80.5859 80.2422 80.5859C74.8385 80.5859 69.7279 81.0091 64.9102 81.8555C60.0924 82.7018 55.6328 83.8737 51.5312 85.3711C47.4297 86.8685 43.6862 88.6263 40.3008 90.6445C36.9805 92.6628 34.1159 94.8763 31.707 97.2852Z"/>
</mask>
<path d="M0.945312 82.9297C0.945312 69.0625 2.99609 56.9857 7.09766 46.6992C11.2643 36.3477 16.9284 27.7539 24.0898 20.918C31.3164 14.082 39.8125 8.97135 49.5781 5.58594C59.3438 2.20052 69.8906 0.507812 81.2188 0.507812C85.9714 0.507812 90.7891 0.768229 95.6719 1.28906C100.62 1.74479 105.47 2.49349 110.223 3.53516C114.975 4.57682 119.565 5.94401 123.992 7.63672C128.484 9.26432 132.651 11.2174 136.492 13.4961L122.723 36.9336C119.858 35.306 116.798 33.9388 113.543 32.832C110.353 31.6602 107.033 30.7487 103.582 30.0977C100.132 29.3815 96.6484 28.8607 93.1328 28.5352C89.6172 28.2096 86.1667 28.0469 82.7812 28.0469C75.2292 28.0469 68.3932 29.0234 62.2734 30.9766C56.2188 32.9297 50.9779 35.6966 46.5508 39.2773C42.1237 42.8581 38.5755 47.1549 35.9062 52.168C33.3021 57.1159 31.6745 62.6172 31.0234 68.6719C34.4089 66.0026 38.1523 63.6914 42.2539 61.7383C46.3555 59.7852 50.6849 58.1901 55.2422 56.9531C59.8646 55.651 64.5846 54.707 69.4023 54.1211C74.2852 53.4701 79.168 53.1445 84.0508 53.1445C93.556 53.1445 102.182 54.2839 109.93 56.5625C117.742 58.8411 124.415 62.1289 129.949 66.4258C135.483 70.7227 139.747 75.9635 142.742 82.1484C145.802 88.2682 147.332 95.2344 147.332 103.047C147.332 110.729 145.802 117.858 142.742 124.434C139.747 131.009 135.288 136.738 129.363 141.621C123.439 146.439 116.082 150.247 107.293 153.047C98.5039 155.781 88.3151 157.148 76.7266 157.148C65.4635 157.148 55.1771 155.716 45.8672 152.852C36.5573 149.987 28.582 145.527 21.9414 139.473C15.3008 133.418 10.125 125.736 6.41406 116.426C2.76823 107.051 0.945312 95.8854 0.945312 82.9297ZM31.707 97.2852C33.2695 107.962 37.957 116.035 45.7695 121.504C53.582 126.908 63.8359 129.609 76.5312 129.609C82.9115 129.609 88.5755 128.958 93.5234 127.656C98.4714 126.354 102.638 124.564 106.023 122.285C109.409 119.941 111.98 117.174 113.738 113.984C115.496 110.794 116.375 107.311 116.375 103.535C116.375 100.345 115.691 97.3503 114.324 94.5508C112.957 91.7513 110.809 89.3424 107.879 87.3242C105.014 85.2409 101.303 83.6133 96.7461 82.4414C92.1888 81.2044 86.6875 80.5859 80.2422 80.5859C74.8385 80.5859 69.7279 81.0091 64.9102 81.8555C60.0924 82.7018 55.6328 83.8737 51.5312 85.3711C47.4297 86.8685 43.6862 88.6263 40.3008 90.6445C36.9805 92.6628 34.1159 94.8763 31.707 97.2852Z" fill="white"/>
<path d="M7.09766 46.6992L5.24231 45.9524L5.23989 45.9585L7.09766 46.6992ZM24.0898 20.918L22.7154 19.465L22.7089 19.4713L24.0898 20.918ZM95.6719 1.28906L95.4597 3.27778L95.4741 3.27931L95.4884 3.28063L95.6719 1.28906ZM110.223 3.53516L109.794 5.48878L110.223 3.53516ZM123.992 7.63672L123.278 9.50482L123.294 9.51111L123.311 9.5171L123.992 7.63672ZM136.492 13.4961L138.217 14.5092L139.225 12.7921L137.513 11.776L136.492 13.4961ZM122.723 36.9336L121.735 38.6725L123.449 39.6463L124.447 37.9467L122.723 36.9336ZM113.543 32.832L112.853 34.7094L112.876 34.7178L112.899 34.7256L113.543 32.832ZM103.582 30.0977L103.176 32.0559L103.193 32.0596L103.211 32.063L103.582 30.0977ZM62.2734 30.9766L61.6654 29.0712L61.6594 29.0731L62.2734 30.9766ZM46.5508 39.2773L45.293 37.7223L46.5508 39.2773ZM35.9062 52.168L34.1409 51.228L34.1364 51.2365L35.9062 52.168ZM31.0234 68.6719L29.0349 68.4581L28.5263 73.1876L32.2617 70.2424L31.0234 68.6719ZM55.2422 56.9531L55.7661 58.8833L55.7753 58.8808L55.7845 58.8782L55.2422 56.9531ZM69.4023 54.1211L69.6438 56.1065L69.6552 56.1051L69.6667 56.1035L69.4023 54.1211ZM109.93 56.5625L109.365 58.4812L109.37 58.4825L109.93 56.5625ZM142.742 82.1484L140.942 83.0201L140.948 83.0315L140.953 83.0429L142.742 82.1484ZM142.742 124.434L140.929 123.59L140.925 123.597L140.922 123.605L142.742 124.434ZM129.363 141.621L130.625 143.173L130.635 143.164L129.363 141.621ZM107.293 153.047L107.887 154.957L107.9 154.953L107.293 153.047ZM45.8672 152.852L45.279 154.763L45.8672 152.852ZM6.41406 116.426L4.55005 117.151L4.5531 117.159L4.55621 117.166L6.41406 116.426ZM31.707 97.2852L30.2928 95.8709L29.5827 96.5811L29.7281 97.5748L31.707 97.2852ZM45.7695 121.504L44.6226 123.142L44.6318 123.149L45.7695 121.504ZM106.023 122.285L107.14 123.944L107.151 123.937L107.162 123.93L106.023 122.285ZM107.879 87.3242L106.703 88.9417L106.723 88.9567L106.744 88.9712L107.879 87.3242ZM96.7461 82.4414L96.2222 84.3716L96.2351 84.3751L96.248 84.3784L96.7461 82.4414ZM40.3008 90.6445L39.2767 88.9266L39.2693 88.931L39.262 88.9355L40.3008 90.6445ZM2.94531 82.9297C2.94531 69.2546 4.96823 57.4396 8.95542 47.44L5.23989 45.9585C1.02395 56.5318 -1.05469 68.8704 -1.05469 82.9297H2.94531ZM8.953 47.446C13.0268 37.3252 18.5403 28.9802 25.4708 22.3647L22.7089 19.4713C15.3165 26.5276 9.50187 35.3701 5.24232 45.9524L8.953 47.446ZM25.4642 22.3709C32.4766 15.7376 40.7249 10.7718 50.2332 7.47561L48.923 3.69627C38.9001 7.17088 30.1562 12.4265 22.7154 19.465L25.4642 22.3709ZM50.2332 7.47561C59.7689 4.16991 70.0923 2.50781 81.2188 2.50781V-1.49219C69.689 -1.49219 58.9186 0.231135 48.923 3.69627L50.2332 7.47561ZM81.2188 2.50781C85.8982 2.50781 90.6451 2.76422 95.4597 3.27778L95.884 -0.699656C90.9331 -1.22776 86.0445 -1.49219 81.2188 -1.49219V2.50781ZM95.4884 3.28063C100.356 3.72894 105.124 4.46518 109.794 5.48878L110.651 1.58153C105.816 0.5218 100.884 -0.23936 95.8553 -0.702508L95.4884 3.28063ZM109.794 5.48878C114.452 6.50967 118.946 7.84864 123.278 9.50482L124.706 5.76862C120.184 4.03938 115.498 2.64397 110.651 1.58153L109.794 5.48878ZM123.311 9.5171C127.693 11.105 131.746 13.0058 135.472 15.2162L137.513 11.776C133.556 9.42914 129.275 7.42368 124.673 5.75634L123.311 9.5171ZM134.768 12.483L120.998 35.9205L124.447 37.9467L138.217 14.5092L134.768 12.483ZM123.711 35.1947C120.732 33.5022 117.556 32.0841 114.187 30.9385L112.899 34.7256C116.04 35.7935 118.984 37.1098 121.735 38.6725L123.711 35.1947ZM114.233 30.9547C110.935 29.7435 107.508 28.8032 103.953 28.1323L103.211 32.063C106.557 32.6942 109.77 33.5768 112.853 34.7094L114.233 30.9547ZM103.988 28.1394C100.464 27.408 96.9073 26.8761 93.3172 26.5437L92.9484 30.5266C96.3896 30.8453 99.7985 31.355 103.176 32.0559L103.988 28.1394ZM93.3172 26.5437C89.7429 26.2127 86.2308 26.0469 82.7812 26.0469V30.0469C86.1025 30.0469 89.4915 30.2066 92.9484 30.5266L93.3172 26.5437ZM82.7812 26.0469C75.0581 26.0469 68.0128 27.0455 61.6654 29.0712L62.8815 32.8819C68.7737 31.0014 75.4002 30.0469 82.7812 30.0469V26.0469ZM61.6594 29.0731C55.3979 31.093 49.9326 33.9697 45.293 37.7223L47.8085 40.8324C52.0231 37.4235 57.0396 34.7664 62.8874 32.88L61.6594 29.0731ZM45.293 37.7223C40.6577 41.4715 36.9367 45.9773 34.1409 51.228L37.6716 53.108C40.2143 48.3326 43.5897 44.2447 47.8085 40.8324L45.293 37.7223ZM34.1364 51.2365C31.4046 56.4268 29.7105 62.1749 29.0349 68.4581L33.012 68.8857C33.6385 63.0594 35.1995 57.8049 37.6761 53.0995L34.1364 51.2365ZM32.2617 70.2424C35.5241 67.6702 39.1395 65.4365 43.1138 63.544L41.394 59.9326C37.1652 61.9463 33.2936 64.335 29.7851 67.1013L32.2617 70.2424ZM43.1138 63.544C47.1031 61.6443 51.3197 60.0902 55.7661 58.8833L54.7183 55.023C50.05 56.2901 45.6078 57.926 41.394 59.9326L43.1138 63.544ZM55.7845 58.8782C60.3072 57.6042 64.9267 56.6802 69.6438 56.1065L69.1609 52.1357C64.2426 52.7339 59.4219 53.6979 54.6999 55.028L55.7845 58.8782ZM69.6667 56.1035C74.4626 55.4641 79.2571 55.1445 84.0508 55.1445V51.1445C79.0788 51.1445 74.1077 51.476 69.138 52.1386L69.6667 56.1035ZM84.0508 55.1445C93.3978 55.1445 101.83 56.265 109.365 58.4812L110.494 54.6438C102.534 52.3027 93.7142 51.1445 84.0508 51.1445V55.1445ZM109.37 58.4825C116.979 60.7019 123.417 63.8858 128.723 68.0055L131.176 64.8461C125.414 60.372 118.505 56.9804 110.49 54.6425L109.37 58.4825ZM128.723 68.0055C134.018 72.1174 138.084 77.1177 140.942 83.0201L144.542 81.2768C141.411 74.8094 136.948 69.3279 131.176 64.8461L128.723 68.0055ZM140.953 83.0429C143.856 88.8479 145.332 95.5006 145.332 103.047H149.332C149.332 94.9681 147.748 87.6885 144.531 81.254L140.953 83.0429ZM145.332 103.047C145.332 110.455 143.859 117.294 140.929 123.59L144.555 125.277C147.746 118.422 149.332 111.003 149.332 103.047H145.332ZM140.922 123.605C138.061 129.886 133.796 135.376 128.091 140.078L130.635 143.164C136.779 138.101 141.434 132.132 144.562 125.263L140.922 123.605ZM128.101 140.069C122.407 144.7 115.285 148.402 106.686 151.141L107.9 154.953C116.879 152.092 124.471 148.178 130.625 143.173L128.101 140.069ZM106.699 151.137C98.1444 153.799 88.1633 155.148 76.7266 155.148V159.148C88.4669 159.148 98.8634 157.764 107.887 154.957L106.699 151.137ZM76.7266 155.148C65.6325 155.148 55.5476 153.738 46.4554 150.94L45.279 154.763C54.8065 157.695 65.2946 159.148 76.7266 159.148V155.148ZM46.4554 150.94C37.4034 148.155 29.6937 143.834 23.2889 137.995L20.5939 140.951C27.4704 147.22 35.7112 151.819 45.279 154.763L46.4554 150.94ZM23.2889 137.995C16.8967 132.167 11.8838 124.747 8.27191 115.685L4.55621 117.166C8.36621 126.725 13.7049 134.669 20.5939 140.951L23.2889 137.995ZM8.27807 115.701C4.74387 106.613 2.94531 95.7055 2.94531 82.9297H-1.05469C-1.05469 96.0653 0.79259 107.489 4.55005 117.151L8.27807 115.701ZM29.7281 97.5748C31.3588 108.718 36.2975 117.315 44.6226 123.142L46.9165 119.865C39.6166 114.756 35.1802 107.206 33.686 96.9956L29.7281 97.5748ZM44.6318 123.149C52.8744 128.85 63.5639 131.609 76.5312 131.609V127.609C64.108 127.609 54.2897 124.965 46.9072 119.859L44.6318 123.149ZM76.5312 131.609C83.0429 131.609 88.8834 130.945 94.0324 129.59L93.0145 125.722C88.2676 126.971 82.78 127.609 76.5312 127.609V131.609ZM94.0324 129.59C99.1443 128.245 103.529 126.375 107.14 123.944L104.907 120.626C101.747 122.752 97.7984 124.463 93.0145 125.722L94.0324 129.59ZM107.162 123.93C110.768 121.433 113.565 118.444 115.49 114.95L111.987 113.019C110.396 115.905 108.05 118.45 104.885 120.641L107.162 123.93ZM115.49 114.95C117.417 111.453 118.375 107.636 118.375 103.535H114.375C114.375 106.987 113.575 110.136 111.987 113.019L115.49 114.95ZM118.375 103.535C118.375 100.048 117.625 96.7526 116.121 93.6731L112.527 95.4285C113.758 97.9479 114.375 100.642 114.375 103.535H118.375ZM116.121 93.6731C114.583 90.5228 112.186 87.8625 109.014 85.6772L106.744 88.9712C109.431 90.8224 111.331 92.9798 112.527 95.4285L116.121 93.6731ZM109.055 85.7067C105.932 83.4352 101.97 81.7196 97.2442 80.5044L96.248 84.3784C100.637 85.5069 104.097 87.0466 106.703 88.9417L109.055 85.7067ZM97.27 80.5112C92.4927 79.2145 86.8049 78.5859 80.2422 78.5859V82.5859C86.5701 82.5859 91.8849 83.1943 96.2222 84.3716L97.27 80.5112ZM80.2422 78.5859C74.7344 78.5859 69.5072 79.0172 64.5641 79.8856L65.2562 83.8253C69.9485 83.001 74.9427 82.5859 80.2422 82.5859V78.5859ZM64.5641 79.8856C59.6442 80.7499 55.0695 81.9502 50.8454 83.4924L52.2171 87.2498C56.1961 85.7972 60.5407 84.6537 65.2562 83.8253L64.5641 79.8856ZM50.8454 83.4924C46.6387 85.0282 42.7803 86.8379 39.2767 88.9266L41.3249 92.3624C44.5921 90.4147 48.2207 88.7088 52.2171 87.2498L50.8454 83.4924ZM39.262 88.9355C35.8239 91.0253 32.8291 93.3347 30.2928 95.8709L33.1212 98.6994C35.4027 96.4179 38.137 94.3002 41.3396 92.3536L39.262 88.9355Z" fill="white" mask="url(#path-1-inside-1_50_21)"/>
</svg>
